<svg width="4764" height="2155" xmlns="http://www.w3.org/2000/svg" xmlns:xlink="http://www.w3.org/1999/xlink" xml:space="preserve" overflow="hidden"><g transform="translate(44 -239)"><path d="M197 2204.12 3526.59 2204.13 3526.59 2217.88 197 2217.88ZM3519.71 2190.38 3560.96 2211 3519.71 2231.63Z"/><path d="M6.875-1.32602e-06 6.87535 1836.73-6.87465 1836.73-6.875 1.32602e-06ZM20.6254 1829.86 0.000360892 1871.11-20.6246 1829.86Z" transform="matrix(1 0 0 -1 242 2313.11)"/><path d="M3413.27 2265.88C3417.96 2265.88 3421.39 2267.68 3423.54 2271.27 3425.69 2274.85 3426.77 2280.76 3426.77 2289 3426.77 2298.66 3426.31 2309.14 3425.4 2320.43L3426.05 2320.43C3437.68 2300.91 3447.3 2283.11 3454.91 2267.03L3469.91 2267.03 3468.97 2270.48C3464.33 2276.08 3457.54 2285.29 3448.59 2298.11 3439.64 2310.94 3431.29 2323.66 3423.54 2336.3 3421.96 2346.25 3419.95 2355.63 3417.51 2364.43L3406.81 2364.43 3404.73 2361.06C3406.65 2353.55 3410.07 2345.27 3415 2336.22 3415.43 2327.18 3415.64 2317.95 3415.64 2308.52 3415.64 2300.53 3415.48 2294.33 3415.14 2289.93 3414.81 2285.53 3414.31 2282.21 3413.67 2279.99 3413.02 2277.76 3412.26 2276.23 3411.37 2275.39 3410.49 2274.56 3409.4 2274.14 3408.11 2274.14 3405.43 2274.14 3402.34 2276.08 3398.85 2279.95L3394.83 2275.93C3397.12 2273.87 3398.91 2272.32 3400.17 2271.27 3401.44 2270.21 3402.76 2269.28 3404.12 2268.47 3405.49 2267.65 3406.9 2267.02 3408.36 2266.56 3409.82 2266.11 3411.46 2265.88 3413.27 2265.88Z" fill-rule="evenodd"/><text fill="#000000" fill-opacity="0" font-family="Arial,Arial_MSFontService,sans-serif" font-size="98.5503" x="3394.83" y="2352.11">ğ›¾</text><path d="M65.8289 486.939 69.992 486.939 55.9236 549.6 58.2205 549.6C61.8094 549.6 65.8409 548.033 70.315 544.899 74.7891 541.765 78.366 538.858 81.0457 536.178 83.7254 533.498 85.0652 530.914 85.0652 528.426 85.0652 526.081 83.4383 524.765 80.1844 524.478L80.9739 520.961 104.23 520.961 105.594 524.478C101.622 528.067 97.4109 531.584 92.9607 535.03L75.16 548.811 82.1941 574.722C82.7683 576.924 83.2828 578.515 83.7373 579.496 84.1919 580.477 84.7183 581.206 85.3164 581.685 85.9146 582.163 86.7161 582.403 87.721 582.403 88.9651 582.403 90.4485 581.733 92.1712 580.393 93.8938 579.053 95.8558 577.115 98.0569 574.579L102.148 578.598C97.8416 583.144 94.2766 586.302 91.4534 588.073 88.6302 589.844 85.9026 590.729 83.2708 590.729 80.0169 590.729 77.4329 589.808 75.5188 587.965 73.6048 586.123 72.0975 583.049 70.9969 578.742L66.2596 560.08C65.781 558.214 65.3025 556.922 64.824 556.204 64.3455 555.486 63.7952 555.008 63.1731 554.768 62.5511 554.529 61.4505 554.409 59.8714 554.409L54.9187 554.409 47.4539 589.58 35.0364 589.58 53.4832 507.539C54.1053 504.763 54.5479 502.598 54.8111 501.043 55.0743 499.488 55.2059 498.112 55.2059 496.916 55.2059 494.906 54.5957 493.494 53.3755 492.681 52.1553 491.867 49.9661 491.413 46.8079 491.317L47.6692 487.585Z" fill-rule="evenodd"/><text fill="#000000" fill-opacity="0" font-family="Arial,Arial_MSFontService,sans-serif" font-size="103.79" x="35.0364" y="577.755">ğ‘˜</text><path d="M190.729 559.499C196.662 559.499 201.145 560.799 204.175 563.399 207.206 565.999 208.721 569.772 208.721 574.716 208.721 576.407 208.553 577.962 208.219 579.382 207.884 580.801 207.357 582.205 206.639 583.593 205.922 584.98 204.957 586.472 203.744 588.067 202.532 589.662 201.192 591.281 199.725 592.924 198.257 594.567 195.721 597.302 192.116 601.13 186.055 607.542 181.605 613.141 178.766 617.926L196.806 617.926C198.369 617.926 199.629 617.83 200.586 617.639 201.543 617.448 202.309 617.129 202.883 616.682 203.457 616.235 203.912 615.653 204.247 614.935 204.582 614.218 205.005 613.109 205.515 611.61L209.582 611.61 208.769 625.582 169.387 625.582 169.387 623.286C170.759 619.936 172.609 616.507 174.938 612.997 177.267 609.488 180.568 605.357 184.843 600.604 188.544 596.521 191.207 593.426 192.834 591.321 194.621 589.024 195.953 587.038 196.83 585.363 197.707 583.688 198.337 582.109 198.72 580.626 199.103 579.142 199.294 577.651 199.294 576.152 199.294 573.759 198.911 571.646 198.146 569.811 197.38 567.977 196.208 566.534 194.629 565.481 193.05 564.428 191.064 563.902 188.671 563.902 182.706 563.902 178.686 567.219 176.613 573.855L170.823 573.855 170.823 564.667C174.683 562.849 178.295 561.533 181.661 560.72 185.026 559.906 188.049 559.499 190.729 559.499ZM140.126 559.499 142.758 559.499C142.567 562.562 142.471 566.805 142.471 572.228L142.471 613.093C142.471 614.943 142.575 616.339 142.782 617.28 142.989 618.221 143.356 618.987 143.883 619.577 144.409 620.167 145.167 620.63 146.156 620.965 147.145 621.3 148.389 621.555 149.888 621.73 151.387 621.906 153.365 622.025 155.822 622.089L155.822 625.582 120.459 625.582 120.459 622.089C124 621.93 126.528 621.714 128.044 621.443 129.559 621.172 130.715 620.765 131.513 620.223 132.311 619.681 132.893 618.915 133.26 617.926 133.626 616.937 133.81 615.326 133.81 613.093L133.81 574.286C133.81 573.009 133.587 572.076 133.14 571.486 132.693 570.896 132.039 570.601 131.178 570.601 130.157 570.601 128.706 571.127 126.824 572.18 124.941 573.233 122.613 574.684 119.837 576.535L117.732 572.85Z" fill-rule="evenodd"/><text fill="#000000" fill-opacity="0" font-family="Arial,Arial_MSFontService,sans-serif" font-size="66.083" x="117.732" y="617.322">12</text><path d="M0 0 80.0654 1684.26" stroke="#FF0000" stroke-width="27.5" stroke-miterlimit="8" fill="none" fill-rule="evenodd" transform="matrix(1 0 0 -1 598 2169.26)"/><path d="M1192.52 2151.08 1009 472" stroke="#0070C0" stroke-width="27.5" stroke-miterlimit="8" fill="none" fill-rule="evenodd"/><path d="M1587.59 2151.66 1476 493" stroke="#7030A0" stroke-width="27.5" stroke-miterlimit="8" fill="none" fill-rule="evenodd"/><path d="M0 0 69.9987 1661.61" stroke="#FF0000" stroke-width="27.5" stroke-miterlimit="8" fill="none" fill-rule="evenodd" transform="matrix(1 0 0 -1 1974 2148.61)"/><path d="M3115.07 2147.55 2432 471" stroke="#0070C0" stroke-width="27.5" stroke-miterlimit="8" fill="none" fill-rule="evenodd"/><path d="M0 0 790.468 1642.78" stroke="#000000" stroke-width="27.5" stroke-miterlimit="8" fill="none" fill-rule="evenodd" transform="matrix(1 0 0 -1 2378 2142.78)"/><path d="M219 1296 4440.85 1298.8" stroke="#A6A6A6" stroke-width="13.75" stroke-miterlimit="8" stroke-dasharray="13.75 13.75" fill="none" fill-rule="evenodd"/><text font-family="Arial,Arial_MSFontService,sans-serif" font-weight="400" font-size="73" transform="matrix(1 0 0 1 553.246 342)">creation</text><text font-family="Arial,Arial_MSFontService,sans-serif" font-weight="400" font-size="92" transform="matrix(1 0 0 1 591.126 438)">(1,0)</text><text font-family="Arial,Arial_MSFontService,sans-serif" font-weight="400" font-size="73" transform="matrix(1 0 0 1 969.649 334)">creation</text><text font-family="Arial,Arial_MSFontService,sans-serif" font-weight="400" font-size="92" transform="matrix(1 0 0 1 1007.53 430)">(</text><text font-family="Arial,Arial_MSFontService,sans-serif" font-weight="400" font-size="92" transform="matrix(1 0 0 1 1037.89 430)">0</text><text font-family="Arial,Arial_MSFontService,sans-serif" font-weight="400" font-size="92" transform="matrix(1 0 0 1 1088.88 430)">,1</text><text font-family="Arial,Arial_MSFontService,sans-serif" font-weight="400" font-size="92" transform="matrix(1 0 0 1 1165.08 430)">)</text><text font-family="Arial,Arial_MSFontService,sans-serif" font-weight="400" font-size="73" transform="matrix(1 0 0 1 1324.52 333)">creation</text><text font-family="Arial,Arial_MSFontService,sans-serif" font-weight="400" font-size="92" transform="matrix(1 0 0 1 1372.18 436)">(</text><text font-family="Arial,Arial_MSFontService,sans-serif" font-weight="400" font-size="92" transform="matrix(1 0 0 1 1402.54 436)">1</text><text font-family="Arial,Arial_MSFontService,sans-serif" font-weight="400" font-size="92" transform="matrix(1 0 0 1 1453.53 436)">,1</text><text font-family="Arial,Arial_MSFontService,sans-serif" font-weight="400" font-size="92" transform="matrix(1 0 0 1 1529.73 436)">)</text><text font-family="Arial,Arial_MSFontService,sans-serif" font-weight="400" font-size="73" transform="matrix(1 0 0 1 1876.97 349)">annihilation</text><text font-family="Arial,Arial_MSFontService,sans-serif" font-weight="400" font-size="92" transform="matrix(1 0 0 1 1965.59 431)">(</text><text font-family="Arial,Arial_MSFontService,sans-serif" font-weight="400" font-size="92" transform="matrix(1 0 0 1 1995.95 431)">1</text><text font-family="Arial,Arial_MSFontService,sans-serif" font-weight="400" font-size="92" transform="matrix(1 0 0 1 2046.94 431)">,0</text><text font-family="Arial,Arial_MSFontService,sans-serif" font-weight="400" font-size="92" transform="matrix(1 0 0 1 2123.14 431)">)</text><text font-family="Arial,Arial_MSFontService,sans-serif" font-weight="400" font-size="73" transform="matrix(1 0 0 1 2264.08 340)">annihilation</text><text font-family="Arial,Arial_MSFontService,sans-serif" font-weight="400" font-size="92" transform="matrix(1 0 0 1 2334.26 432)">(</text><text font-family="Arial,Arial_MSFontService,sans-serif" font-weight="400" font-size="92" transform="matrix(1 0 0 1 2364.62 432)">0</text><text font-family="Arial,Arial_MSFontService,sans-serif" font-weight="400" font-size="92" transform="matrix(1 0 0 1 2415.61 432)">,</text><text font-family="Arial,Arial_MSFontService,sans-serif" font-weight="400" font-size="92" transform="matrix(1 0 0 1 2440.82 432)">1</text><text font-family="Arial,Arial_MSFontService,sans-serif" font-weight="400" font-size="92" transform="matrix(1 0 0 1 2491.81 432)">)</text><text font-family="Arial,Arial_MSFontService,sans-serif" font-weight="400" font-size="73" transform="matrix(1 0 0 1 3038.71 333)">annihilation</text><text font-family="Arial,Arial_MSFontService,sans-serif" font-weight="400" font-size="92" transform="matrix(1 0 0 1 3125.49 432)">(</text><text font-family="Arial,Arial_MSFontService,sans-serif" font-weight="400" font-size="92" transform="matrix(1 0 0 1 3155.85 432)">0</text><text font-family="Arial,Arial_MSFontService,sans-serif" font-weight="400" font-size="92" transform="matrix(1 0 0 1 3206.84 432)">,</text><text font-family="Arial,Arial_MSFontService,sans-serif" font-weight="400" font-size="92" transform="matrix(1 0 0 1 3232.05 432)">0</text><text font-family="Arial,Arial_MSFontService,sans-serif" font-weight="400" font-size="92" transform="matrix(1 0 0 1 3283.04 432)">)</text><path d="M3575.13 2388.83 3548 251" stroke="#A6A6A6" stroke-width="13.75" stroke-miterlimit="8" stroke-dasharray="13.75 13.75" fill="none" fill-rule="evenodd"/><g><g><g><path d="M853.001 805.399 801.187 818.764 736.152 831.211 671.011 839.352 605.749 843.206 540.383 842.761 474.904 838.022 473.695 837.86" stroke="#000000" stroke-width="13.0562" stroke-miterlimit="3.25" stroke-opacity="0.7" fill="none" transform="matrix(1 0 0 1.00017 3553.72 1317.91)"/><path d="M320.852 860.66 319.569 856.495 316.904 846.579 315.591 840.665 314.581 834.744 314.09 829.313 314.336 824.836 315.422 820.916 317.557 815.967 320.381 810.471 323.526 804.888 329.269 795.435 331.837 791.431 197.289 806.259Z" fill="#000000" fill-rule="evenodd" fill-opacity="0.7" transform="matrix(1 0 0 1.00017 3713.29 1330)"/><path d="M355.693 773.609 407.517 760.246 472.551 747.806 537.692 739.656 602.954 735.802 668.32 736.246 733.8 740.988 734.999 741.157" stroke="#FF7F00" stroke-width="13.0562" stroke-miterlimit="3.25" stroke-opacity="0.7" fill="none" transform="matrix(1 0 0 1.00017 3553.72 1317.91)"/><path d="M568.699 694.179 569.973 698.335 572.647 708.253 573.96 714.174 574.97 720.086 575.461 725.526 575.215 730.004 574.129 733.913 571.984 738.863 569.16 744.368 566.024 749.941 560.282 759.395 557.714 763.399 692.261 748.58Z" fill="#FF7F00" fill-rule="evenodd" fill-opacity="0.7" transform="matrix(1 0 0 1.00017 3713.29 1330)"/><path d="M275.395 716.394 264.515 344.994" stroke="#000000" stroke-width="13.0562" stroke-miterlimit="3.25" stroke-opacity="0.7" fill="none" transform="matrix(1 0 0 1.00017 3553.72 1317.91)"/><path d="M70.9481 345.957 74.8014 343.926 84.0476 339.467 89.62 337.078 95.2395 334.992 100.491 333.5 104.939 332.905 108.991 333.244 114.242 334.433 120.173 336.181 126.237 338.232 136.598 342.122 141.008 343.906 101.473 214.44Z" fill="#000000" fill-rule="evenodd" fill-opacity="0.7" transform="matrix(1 0 0 1.00017 3713.29 1330)"/><path d="M336.559 120.457 388.438 107.055 453.501 94.5785 518.688 86.4089 583.979 82.5271 649.384 82.9521 714.902 87.6744 716.215 87.8538" stroke="#FF7F00" stroke-width="13.0562" stroke-miterlimit="3.25" stroke-opacity="0.7" fill="none" transform="matrix(1 0 0 1.00017 3553.72 1317.91)"/><path d="M549.905 40.8668 551.179 45.032 553.851 54.9489 555.164 60.8612 556.174 66.7735 556.675 72.2136 556.431 76.6904 555.345 80.6097 553.2 85.5588 550.386 91.0557 547.24 96.6375 541.508 106.091 538.928 110.096 673.477 95.2395Z" fill="#FF7F00" fill-rule="evenodd" fill-opacity="0.7" transform="matrix(1 0 0 1.00017 3713.29 1330)"/><path d="M914.486 209.255 925.168 580.892" stroke="#FF7F00" stroke-width="13.0562" stroke-miterlimit="3.25" stroke-opacity="0.7" fill="none" transform="matrix(1 0 0 1.00017 3553.72 1317.91)"/><path d="M799.591 555.768 795.737 557.789 786.482 562.248 780.909 564.637 775.289 566.726 770.028 568.217 765.592 568.803 761.539 568.452 756.278 567.272 750.357 565.517 744.293 563.466 733.933 559.566 729.522 557.78 768.991 687.266Z" fill="#FF7F00" fill-rule="evenodd" fill-opacity="0.7" transform="matrix(1 0 0 1.00017 3713.29 1330)"/><path d="M834.234 152.068 782.354 165.47 717.291 177.937 652.113 186.116 586.813 189.988 521.408 189.572 455.893 184.85 454.58 184.671" stroke="#000000" stroke-width="13.0562" stroke-miterlimit="3.25" stroke-opacity="0.7" fill="none" transform="matrix(1 0 0 1.00017 3553.72 1317.91)"/><path d="M301.737 207.47 300.463 203.314 297.789 193.398 296.476 187.485 295.465 181.564 294.974 176.133 295.211 171.656 296.297 167.736 298.442 162.787 301.266 157.291 304.399 151.709 310.134 142.245 312.712 138.25 178.163 153.107Z" fill="#000000" fill-rule="evenodd" fill-opacity="0.7" transform="matrix(1 0 0 1.00017 3713.29 1330)"/><path d="M1012.59 780.986C1012.59 802.652 1003.98 823.419 988.662 838.738 973.343 854.048 952.574 862.653 930.918 862.653 909.251 862.653 888.485 854.048 873.165 838.738 857.856 823.419 849.251 802.652 849.251 780.986 849.251 759.329 857.856 738.56 873.165 723.241 888.485 707.922 909.251 699.317 930.918 699.317 952.574 699.317 973.343 707.922 988.662 723.241 1003.98 738.56 1012.59 759.329 1012.59 780.986Z" stroke="#000000" stroke-width="2.41782" stroke-linecap="square" stroke-miterlimit="3.25" stroke-opacity="0.7" fill="#A3B3CC" fill-rule="evenodd" transform="matrix(1 0 0 1.00017 3553.72 1317.91)"/><path d="M19.8998-52.1343C24.9244-52.1343 28.8533-50.3398 31.6962-46.7508 35.0584-42.5007 36.749-35.4458 36.7584-25.6043 36.749-15.7725 35.049-8.71739 31.6585-4.42952 28.8439-0.887796 24.9244 0.878349 19.8998 0.887796 14.8469 0.878349 10.7763-1.0578 7.67847-4.93954 4.58064-8.82128 3.03173-15.7442 3.04116-25.7082 3.03173-35.4835 4.73175-42.5196 8.14127-46.817 10.9463-50.3587 14.8658-52.1343 19.8998-52.1343ZM19.8998-43.8796C18.6909-43.8702 17.6142-43.4925 16.6792-42.7275 15.7253-41.9531 14.998-40.574 14.4881-38.6001 13.7986-36.0217 13.4586-31.6868 13.4586-25.6043 13.4586-19.5032 13.7608-15.3192 14.3747-13.0525 14.9886-10.7669 15.7631-9.25572 16.6981-8.50015 17.6237-7.74458 18.6909-7.36682 19.8998-7.36682 21.0993-7.36682 22.176-7.74458 23.1299-8.51905 24.0649-9.27462 24.7921-10.6535 25.3211-12.6464 26.001-15.187 26.3504-19.5032 26.3504-25.6043 26.3504-31.6868 26.0387-35.8706 25.4249-38.1562 24.811-40.4231 24.0366-41.9531 23.111-42.7275 22.1665-43.4925 21.0993-43.8702 19.8998-43.8796Z" transform="matrix(1 0 0 1.00017 4444.29 2124.18)"/><path d="M19.8998-52.1343C24.9244-52.1343 28.8533-50.3398 31.6962-46.7508 35.0584-42.5007 36.749-35.4458 36.7584-25.6043 36.749-15.7725 35.049-8.71739 31.6585-4.42952 28.8439-0.887796 24.9244 0.878349 19.8998 0.887796 14.8469 0.878349 10.7763-1.0578 7.67847-4.93954 4.58064-8.82128 3.03173-15.7442 3.04116-25.7082 3.03173-35.4835 4.73175-42.5196 8.14127-46.817 10.9463-50.3587 14.8658-52.1343 19.8998-52.1343ZM19.8998-43.8796C18.6909-43.8702 17.6142-43.4925 16.6792-42.7275 15.7253-41.9531 14.998-40.574 14.4881-38.6001 13.7986-36.0217 13.4586-31.6868 13.4586-25.6043 13.4586-19.5032 13.7608-15.3192 14.3747-13.0525 14.9886-10.7669 15.7631-9.25572 16.6981-8.50015 17.6237-7.74458 18.6909-7.36682 19.8998-7.36682 21.0993-7.36682 22.176-7.74458 23.1299-8.51905 24.0649-9.27462 24.7921-10.6535 25.3211-12.6464 26.001-15.187 26.3504-19.5032 26.3504-25.6043 26.3504-31.6868 26.0387-35.8706 25.4249-38.1562 24.811-40.4231 24.0366-41.9531 23.111-42.7275 22.1665-43.4925 21.0993-43.8702 19.8998-43.8796Z" transform="matrix(1 0 0 1.00017 4484.63 2124.18)"/><path d="M359.453 798.024C359.453 819.681 350.848 840.457 335.529 855.776 320.219 871.086 299.443 879.691 277.786 879.691 256.13 879.691 235.35 871.086 220.041 855.776 204.722 840.457 196.118 819.681 196.118 798.024 196.118 776.368 204.722 755.589 220.041 740.279 235.35 724.96 256.13 716.355 277.786 716.355 299.443 716.355 320.219 724.96 335.529 740.279 350.848 755.589 359.453 776.368 359.453 798.024Z" stroke="#000000" stroke-width="2.41782" stroke-linecap="square" stroke-miterlimit="3.25" stroke-opacity="0.7" fill="#A3B3CC" fill-rule="evenodd" transform="matrix(1 0 0 1.00017 3553.72 1317.91)"/><path d="M19.8998-52.1343C24.9244-52.1343 28.8533-50.3398 31.6962-46.7508 35.0584-42.5007 36.749-35.4458 36.7584-25.6043 36.749-15.7725 35.049-8.71739 31.6585-4.42952 28.8439-0.887796 24.9244 0.878349 19.8998 0.887796 14.8469 0.878349 10.7763-1.0578 7.67847-4.93954 4.58064-8.82128 3.03173-15.7442 3.04116-25.7082 3.03173-35.4835 4.73175-42.5196 8.14127-46.817 10.9463-50.3587 14.8658-52.1343 19.8998-52.1343ZM19.8998-43.8796C18.6909-43.8702 17.6142-43.4925 16.6792-42.7275 15.7253-41.9531 14.998-40.574 14.4881-38.6001 13.7986-36.0217 13.4586-31.6868 13.4586-25.6043 13.4586-19.5032 13.7608-15.3192 14.3747-13.0525 14.9886-10.7669 15.7631-9.25572 16.6981-8.50015 17.6237-7.74458 18.6909-7.36682 19.8998-7.36682 21.0993-7.36682 22.176-7.74458 23.1299-8.51905 24.0649-9.27462 24.7921-10.6535 25.3211-12.6464 26.001-15.187 26.3504-19.5032 26.3504-25.6043 26.3504-31.6868 26.0387-35.8706 25.4249-38.1562 24.811-40.4231 24.0366-41.9531 23.111-42.7275 22.1665-43.4925 21.0993-43.8702 19.8998-43.8796Z" transform="matrix(1 0 0 1.00017 3791.16 2141.22)"/><path d="M28.5417 0 18.5965 0 18.5965-37.5045C14.9508-34.0952 10.663-31.5828 5.73288-29.9583L5.73288-38.9968C8.33015-39.8375 11.1541-41.4429 14.1953-43.823 17.2364-46.1843 19.3237-48.9609 20.4665-52.1343L28.5417-52.1343Z" transform="matrix(1 0 0 1.00017 3831.5 2141.22)"/><path d="M340.318 144.899C340.318 166.556 331.713 187.334 316.404 202.644 301.084 217.963 280.318 226.567 258.651 226.567 236.994 226.567 216.225 217.963 200.906 202.644 185.587 187.334 176.983 166.556 176.983 144.899 176.983 123.243 185.587 102.465 200.906 87.155 216.225 71.8357 236.994 63.2316 258.651 63.2316 280.318 63.2316 301.084 71.8357 316.404 87.155 331.713 102.465 340.318 123.243 340.318 144.899Z" stroke="#000000" stroke-width="2.41782" stroke-linecap="square" stroke-miterlimit="3.25" stroke-opacity="0.7" fill="#A3B3CC" fill-rule="evenodd" transform="matrix(1 0 0 1.00017 3553.72 1317.91)"/><path d="M28.5417 0 18.5965 0 18.5965-37.5045C14.9508-34.0952 10.663-31.5828 5.73288-29.9583L5.73288-38.9968C8.33015-39.8375 11.1541-41.4429 14.1953-43.823 17.2364-46.1843 19.3237-48.9609 20.4665-52.1343L28.5417-52.1343Z" transform="matrix(1 0 0 1.00017 3772.03 1487.98)"/><path d="M28.5417 0 18.5965 0 18.5965-37.5045C14.9508-34.0952 10.663-31.5828 5.73288-29.9583L5.73288-38.9968C8.33015-39.8375 11.1541-41.4429 14.1953-43.823 17.2364-46.1843 19.3237-48.9609 20.4665-52.1343L28.5417-52.1343Z" transform="matrix(1 0 0 1.00017 3812.37 1487.98)"/><path d="M993.81 127.625C993.81 149.282 985.207 170.06 969.888 185.37 954.578 200.689 933.8 209.293 912.143 209.293 890.477 209.293 869.708 200.689 854.389 185.37 839.079 170.06 830.474 149.282 830.474 127.625 830.474 105.959 839.079 85.1906 854.389 69.8712 869.708 54.5616 890.477 45.9575 912.143 45.9575 933.8 45.9575 954.578 54.5616 969.888 69.8712 985.207 85.1906 993.81 105.959 993.81 127.625Z" stroke="#000000" stroke-width="2.41782" stroke-linecap="square" stroke-miterlimit="3.25" stroke-opacity="0.7" fill="#A3B3CC" fill-rule="evenodd" transform="matrix(1 0 0 1.00017 3553.72 1317.91)"/><path d="M28.5417 0 18.5965 0 18.5965-37.5045C14.9508-34.0952 10.663-31.5828 5.73288-29.9583L5.73288-38.9968C8.33015-39.8375 11.1541-41.4429 14.1953-43.823 17.2364-46.1843 19.3237-48.9609 20.4665-52.1343L28.5417-52.1343Z" transform="matrix(1 0 0 1.00017 4425.51 1470.7)"/><path d="M19.8998-52.1343C24.9244-52.1343 28.8533-50.3398 31.6962-46.7508 35.0584-42.5007 36.749-35.4458 36.7584-25.6043 36.749-15.7725 35.049-8.71739 31.6585-4.42952 28.8439-0.887796 24.9244 0.878349 19.8998 0.887796 14.8469 0.878349 10.7763-1.0578 7.67847-4.93954 4.58064-8.82128 3.03173-15.7442 3.04116-25.7082 3.03173-35.4835 4.73175-42.5196 8.14127-46.817 10.9463-50.3587 14.8658-52.1343 19.8998-52.1343ZM19.8998-43.8796C18.6909-43.8702 17.6142-43.4925 16.6792-42.7275 15.7253-41.9531 14.998-40.574 14.4881-38.6001 13.7986-36.0217 13.4586-31.6868 13.4586-25.6043 13.4586-19.5032 13.7608-15.3192 14.3747-13.0525 14.9886-10.7669 15.7631-9.25572 16.6981-8.50015 17.6237-7.74458 18.6909-7.36682 19.8998-7.36682 21.0993-7.36682 22.176-7.74458 23.1299-8.51905 24.0649-9.27462 24.7921-10.6535 25.3211-12.6464 26.001-15.187 26.3504-19.5032 26.3504-25.6043 26.3504-31.6868 26.0387-35.8706 25.4249-38.1562 24.811-40.4231 24.0366-41.9531 23.111-42.7275 22.1665-43.4925 21.0993-43.8702 19.8998-43.8796Z" transform="matrix(1 0 0 1.00017 4465.86 1470.7)"/></g></g></g><text font-family="Arial,Arial_MSFontService,sans-serif" font-weight="400" font-size="92" transform="matrix(1 0 0 1 392.448 603)">(0,0)</text><text font-family="Arial,Arial_MSFontService,sans-serif" font-weight="400" font-size="92" transform="matrix(1 0 0 1 784.896 603)">(0,0)</text><text font-family="Arial,Arial_MSFontService,sans-serif" font-weight="400" font-size="92" transform="matrix(1 0 0 1 1230.15 606)">(0,0)</text><text font-family="Arial,Arial_MSFontService,sans-serif" font-weight="400" font-size="92" transform="matrix(1 0 0 1 1691.2 606)">(0,0)</text><text font-family="Arial,Arial_MSFontService,sans-serif" font-weight="400" font-size="92" transform="matrix(1 0 0 1 777.405 751)">(1,0)</text><text font-family="Arial,Arial_MSFontService,sans-serif" font-weight="400" font-size="92" transform="matrix(1 0 0 1 1221.13 751)">(1,0)</text><text font-family="Arial,Arial_MSFontService,sans-serif" font-weight="400" font-size="92" transform="matrix(1 0 0 1 1679.19 1065)">(1,1)</text><path d="M590 560.844 775.653 560.844 775.653 571.157 590 571.156ZM747.314 543.5 785.886 566.001 747.313 588.501C744.854 589.936 741.696 589.105 740.262 586.645 738.827 584.186 739.658 581.028 742.117 579.594L773.055 561.547 773.055 570.454 742.117 552.407C739.658 550.973 738.827 547.815 740.262 545.356 741.697 542.896 744.854 542.065 747.314 543.5Z"/><path d="M1408 554.844 1678.84 554.844 1678.84 565.157 1408 565.156ZM1650.5 537.5 1689.07 560 1650.5 582.501C1648.04 583.936 1644.88 583.105 1643.45 580.645 1642.01 578.185 1642.84 575.028 1645.3 573.593L1676.24 555.546 1676.24 564.454 1645.3 546.407C1642.84 544.972 1642.01 541.815 1643.45 539.355 1644.88 536.896 1648.04 536.065 1650.5 537.5Z"/><path d="M1866 1021.84 2241.54 1021.84 2241.54 1032.16 1866 1032.16ZM2213.2 1004.5 2251.77 1027 2213.2 1049.5C2210.74 1050.94 2207.58 1050.11 2206.15 1047.65 2204.71 1045.19 2205.55 1042.03 2208.01 1040.59L2238.94 1022.55 2238.94 1031.45 2208.01 1013.41C2205.55 1011.97 2204.71 1008.82 2206.15 1006.36 2207.58 1003.9 2210.74 1003.06 2213.2 1004.5Z"/><path d="M2433 1014.84 2706.95 1014.84 2706.95 1025.16 2433 1025.16ZM2678.62 997.499 2717.19 1020 2678.62 1042.5C2676.16 1043.94 2673 1043.1 2671.56 1040.65 2670.13 1038.19 2670.96 1035.03 2673.42 1033.59L2704.36 1015.55 2704.36 1024.45 2673.42 1006.41C2670.96 1004.97 2670.13 1001.82 2671.56 999.355 2673 996.895 2676.16 996.065 2678.62 997.499Z"/><path d="M2894 1042.84 3358.35 1042.84 3358.35 1053.16 2894 1053.16ZM3330.01 1025.5 3368.58 1048 3330.01 1070.5C3327.55 1071.94 3324.39 1071.11 3322.96 1068.65 3321.52 1066.19 3322.35 1063.03 3324.81 1061.59L3355.75 1043.55 3355.75 1052.45 3324.81 1034.41C3322.35 1032.97 3321.52 1029.82 3322.96 1027.36 3324.39 1024.9 3327.55 1024.06 3330.01 1025.5Z"/><path d="M605.209 602.844 772.535 602.844 772.535 613.157 605.209 613.156ZM633.549 630.501 594.976 608 633.549 585.499C636.009 584.065 639.166 584.895 640.601 587.355 642.036 589.815 641.205 592.972 638.745 594.407L607.807 612.454 607.808 603.546 638.745 621.593C641.205 623.028 642.036 626.185 640.601 628.645 639.166 631.105 636.009 631.936 633.549 630.501Z" fill="#FFC000"/><path d="M1418.21 601.844 1689.05 601.844 1689.05 612.157 1418.21 612.156ZM1446.55 629.501 1407.98 607 1446.55 584.499C1449.01 583.065 1452.17 583.895 1453.6 586.355 1455.04 588.815 1454.2 591.972 1451.74 593.407L1420.81 611.454 1420.81 602.546 1451.74 620.593C1454.2 622.028 1455.04 625.185 1453.6 627.645 1452.17 630.105 1449.01 630.936 1446.55 629.501Z" fill="#FFC000"/><path d="M1876.21 1060.84 2245.72 1060.84 2245.72 1071.16 1876.21 1071.16ZM1904.55 1088.5 1865.98 1066 1904.55 1043.5C1907.01 1042.06 1910.17 1042.9 1911.6 1045.36 1913.04 1047.81 1912.2 1050.97 1909.74 1052.41L1878.81 1070.45 1878.81 1061.55 1909.74 1079.59C1912.2 1081.03 1913.04 1084.19 1911.6 1086.65 1910.17 1089.1 1907.01 1089.94 1904.55 1088.5Z" fill="#FFC000"/><path d="M2890.21 1086.84 3368.6 1086.84 3368.6 1097.16 2890.21 1097.16ZM2918.55 1114.5 2879.98 1092 2918.55 1069.5C2921.01 1068.06 2924.17 1068.9 2925.6 1071.36 2927.04 1073.81 2926.2 1076.97 2923.74 1078.41L2892.81 1096.45 2892.81 1087.55 2923.74 1105.59C2926.2 1107.03 2927.04 1110.19 2925.6 1112.65 2924.17 1115.1 2921.01 1115.94 2918.55 1114.5Z" fill="#FFC000"/><path d="M611.262 608.992 789.288 742.31 783.106 750.565 605.081 617.247ZM617.368 648.117 599.981 606.986 644.343 612.097C647.172 612.423 649.201 614.98 648.875 617.809 648.549 620.638 645.992 622.667 643.163 622.341L607.582 618.242 612.921 611.112 626.867 644.102C627.976 646.725 626.748 649.75 624.125 650.859 621.502 651.968 618.477 650.74 617.368 648.117Z" fill="#FFC000"/><text font-family="Arial,Arial_MSFontService,sans-serif" font-weight="400" font-size="92" transform="matrix(1 0 0 1 1685.16 746)">(1,0)</text><text font-family="Arial,Arial_MSFontService,sans-serif" font-weight="400" font-size="92" transform="matrix(1 0 0 1 1685.21 912)">(0,1)</text><path d="M2899.73 561.439 3365.25 1048.95 3357.79 1056.07 2892.27 568.561ZM3358.22 1016.47 3368.59 1059.91 3325.67 1047.55C3322.94 1046.76 3321.36 1043.91 3322.15 1041.17 3322.93 1038.43 3325.79 1036.85 3328.53 1037.64L3362.95 1047.55 3356.5 1053.71 3348.19 1018.87C3347.53 1016.1 3349.24 1013.32 3352.01 1012.66 3354.78 1011.99 3357.56 1013.7 3358.22 1016.47Z"/><text font-family="Arial,Arial_MSFontService,sans-serif" font-weight="400" font-size="92" transform="matrix(1 0 0 1 1221.13 905)">(0,1)</text><path d="M962 703.844 1222.15 703.844 1222.15 714.157 962 714.156ZM1193.81 686.5 1232.38 709.001 1193.81 731.501C1191.35 732.936 1188.2 732.105 1186.76 729.645 1185.33 727.186 1186.16 724.028 1188.62 722.594L1219.55 704.547 1219.55 713.454 1188.62 695.407C1186.16 693.973 1185.33 690.815 1186.76 688.356 1188.2 685.896 1191.35 685.065 1193.81 686.5Z"/><path d="M960.209 745.844 1225.97 745.844 1225.97 756.157 960.209 756.156ZM988.549 773.501 949.976 751 988.549 728.499C991.009 727.065 994.166 727.895 995.601 730.355 997.036 732.815 996.205 735.972 993.745 737.407L962.808 755.454 962.808 746.546 993.745 764.593C996.205 766.028 997.036 769.185 995.601 771.645 994.166 774.105 991.009 774.936 988.549 773.501Z" fill="#FFC000"/><path d="M1407.67 748.124 1691.46 1062.58 1683.81 1069.49 1400.01 755.033ZM1406.12 787.693 1396.98 743.982 1439.53 757.542C1442.24 758.407 1443.74 761.307 1442.88 764.021 1442.01 766.734 1439.11 768.232 1436.4 767.368L1402.27 756.492 1408.89 750.524 1416.22 785.582C1416.8 788.37 1415.01 791.102 1412.23 791.684 1409.44 792.267 1406.71 790.48 1406.12 787.693Z" fill="#FFC000"/><path d="M979.45 600.647 1230.94 908.73 1222.95 915.251 971.461 607.169ZM975.947 640.091 968.985 595.982 1010.81 611.634C1013.47 612.632 1014.83 615.603 1013.83 618.27 1012.83 620.937 1009.86 622.29 1007.19 621.292L973.649 608.738 980.549 603.105 986.133 638.484C986.577 641.297 984.657 643.937 981.844 644.381 979.031 644.825 976.391 642.904 975.947 640.091Z" fill="#FFC000"/><text font-family="Arial,Arial_MSFontService,sans-serif" font-weight="400" font-size="92" transform="matrix(1 0 0 1 3364.63 1077)">(1,1)</text><path d="M970 550.844 1230.15 550.844 1230.15 561.156 970 561.156ZM1201.81 533.499 1240.38 556 1201.81 578.501C1199.35 579.936 1196.19 579.105 1194.76 576.645 1193.33 574.185 1194.16 571.028 1196.62 569.593L1227.55 551.546 1227.55 560.454 1196.62 542.407C1194.16 540.972 1193.33 537.815 1194.76 535.355 1196.19 532.895 1199.35 532.065 1201.81 533.499Z"/><path d="M968.209 593.844 1233.97 593.844 1233.97 604.157 968.209 604.156ZM996.549 621.501 957.976 599 996.549 576.5C999.009 575.065 1002.17 575.896 1003.6 578.355 1005.04 580.815 1004.2 583.972 1001.75 585.407L970.807 603.454 970.808 594.546 1001.74 612.593C1004.2 614.028 1005.04 617.185 1003.6 619.645 1002.17 622.105 999.009 622.936 996.549 621.501Z" fill="#FFC000"/><path d="M1402 697.844 1672.84 697.844 1672.84 708.157 1402 708.156ZM1644.5 680.5 1683.07 703 1644.5 725.501C1642.04 726.936 1638.88 726.105 1637.45 723.645 1636.01 721.185 1636.84 718.028 1639.3 716.593L1670.24 698.546 1670.24 707.454 1639.3 689.407C1636.84 687.972 1636.01 684.815 1637.45 682.355 1638.88 679.896 1642.04 679.065 1644.5 680.5Z"/><path d="M1412.21 744.844 1683.05 744.844 1683.05 755.157 1412.21 755.156ZM1440.55 772.501 1401.98 750 1440.55 727.499C1443.01 726.065 1446.17 726.895 1447.6 729.355 1449.04 731.815 1448.2 734.972 1445.75 736.407L1414.81 754.454 1414.81 745.546 1445.75 763.593C1448.2 765.028 1449.04 768.185 1447.6 770.645 1446.17 773.105 1443.01 773.936 1440.55 772.501Z" fill="#FFC000"/><path d="M1408 859.844 1678.84 859.844 1678.84 870.156 1408 870.156ZM1650.5 842.499 1689.07 865 1650.5 887.501C1648.04 888.936 1644.88 888.105 1643.45 885.645 1642.01 883.185 1642.84 880.028 1645.3 878.593L1676.24 860.546 1676.24 869.454 1645.3 851.407C1642.84 849.972 1642.01 846.815 1643.45 844.355 1644.88 841.895 1648.04 841.065 1650.5 842.499Z"/><path d="M1418.21 905.844 1689.05 905.844 1689.05 916.157 1418.21 916.156ZM1446.55 933.501 1407.98 911 1446.55 888.499C1449.01 887.064 1452.17 887.895 1453.6 890.355 1455.04 892.815 1454.2 895.972 1451.74 897.407L1420.81 915.454 1420.81 906.546 1451.74 924.593C1454.2 926.028 1455.04 929.185 1453.6 931.645 1452.17 934.105 1449.01 934.936 1446.55 933.501Z" fill="#FFC000"/><text font-family="Arial,Arial_MSFontService,sans-serif" font-weight="400" font-size="92" transform="matrix(1 0 0 1 2254.42 608)">(0,0)</text><text font-family="Arial,Arial_MSFontService,sans-serif" font-weight="400" font-size="92" transform="matrix(1 0 0 1 2242.41 1067)">(1,1)</text><text font-family="Arial,Arial_MSFontService,sans-serif" font-weight="400" font-size="92" transform="matrix(1 0 0 1 2248.43 913)">(0,1)</text><path d="M1872 859.844 2247.54 859.844 2247.54 870.156 1872 870.156ZM2219.2 842.499 2257.77 865 2219.2 887.501C2216.74 888.936 2213.58 888.105 2212.15 885.645 2210.72 883.185 2211.55 880.028 2214.01 878.593L2244.94 860.546 2244.94 869.454 2214.01 851.407C2211.55 849.972 2210.72 846.815 2212.15 844.355 2213.58 841.895 2216.74 841.065 2219.2 842.499Z"/><path d="M1882.21 898.844 2251.72 898.844 2251.72 909.157 1882.21 909.156ZM1910.55 926.501 1871.98 904 1910.55 881.499C1913.01 880.064 1916.17 880.895 1917.6 883.355 1919.04 885.815 1918.2 888.972 1915.75 890.407L1884.81 908.454 1884.81 899.546 1915.75 917.593C1918.2 919.028 1919.04 922.185 1917.6 924.645 1916.17 927.105 1913.01 927.936 1910.55 926.501Z" fill="#FFC000"/><path d="M1872 560.844 2247.54 560.844 2247.54 571.157 1872 571.156ZM2219.2 543.5 2257.77 566.001 2219.2 588.501C2216.74 589.936 2213.58 589.105 2212.15 586.645 2210.72 584.186 2211.55 581.028 2214.01 579.594L2244.94 561.547 2244.94 570.454 2214.01 552.407C2211.55 550.973 2210.72 547.815 2212.15 545.356 2213.58 542.896 2216.74 542.065 2219.2 543.5Z"/><path d="M1882.21 599.844 2251.72 599.844 2251.72 610.157 1882.21 610.156ZM1910.55 627.501 1871.98 605 1910.55 582.499C1913.01 581.064 1916.17 581.895 1917.6 584.355 1919.04 586.815 1918.2 589.972 1915.75 591.407L1884.81 609.454 1884.81 600.546 1915.75 618.593C1918.2 620.028 1919.04 623.185 1917.6 625.645 1916.17 628.105 1913.01 628.936 1910.55 627.501Z" fill="#FFC000"/><path d="M1869.36 692.091 2247.37 1017.25 2240.65 1025.06 1862.64 699.909ZM2237.2 985.617 2251.77 1027.83 2207.85 1019.73C2205.05 1019.22 2203.2 1016.53 2203.72 1013.73 2204.23 1010.93 2206.92 1009.08 2209.72 1009.59L2244.95 1016.09 2239.14 1022.84 2227.45 988.982C2226.52 986.29 2227.95 983.354 2230.64 982.425 2233.33 981.496 2236.27 982.925 2237.2 985.617Z"/><text font-family="Arial,Arial_MSFontService,sans-serif" font-weight="400" font-size="92" transform="matrix(1 0 0 1 2712.94 613)">(0,0)</text><text font-family="Arial,Arial_MSFontService,sans-serif" font-weight="400" font-size="92" transform="matrix(1 0 0 1 2700.93 1072)">(1,1)</text><path d="M2433 557.844 2706.95 557.844 2706.95 568.157 2433 568.156ZM2678.62 540.5 2717.19 563 2678.62 585.501C2676.16 586.936 2673 586.105 2671.56 583.645 2670.13 581.186 2670.96 578.028 2673.42 576.593L2704.36 558.547 2704.36 567.454 2673.42 549.407C2670.96 547.972 2670.13 544.815 2671.56 542.355 2673 539.896 2676.16 539.065 2678.62 540.5Z"/><path d="M2442.21 600.844 2717.17 600.844 2717.17 611.157 2442.21 611.156ZM2470.55 628.501 2431.98 606 2470.55 583.499C2473.01 582.065 2476.17 582.895 2477.6 585.355 2479.04 587.815 2478.2 590.972 2475.74 592.407L2444.81 610.454 2444.81 601.546 2475.74 619.593C2478.2 621.028 2479.04 624.185 2477.6 626.645 2476.17 629.105 2473.01 629.936 2470.55 628.501Z" fill="#FFC000"/><path d="M2430.21 1059.84 2705.17 1059.84 2705.17 1070.16 2430.21 1070.16ZM2458.55 1087.5 2419.98 1065 2458.55 1042.5C2461.01 1041.06 2464.17 1041.9 2465.6 1044.35 2467.04 1046.81 2466.2 1049.97 2463.74 1051.41L2432.81 1069.45 2432.81 1060.55 2463.74 1078.59C2466.2 1080.03 2467.04 1083.19 2465.6 1085.64 2464.17 1088.1 2461.01 1088.94 2458.55 1087.5Z" fill="#FFC000"/><text font-family="Arial,Arial_MSFontService,sans-serif" font-weight="400" font-size="92" transform="matrix(1 0 0 1 392.448 1598)">(0,0)</text><text font-family="Arial,Arial_MSFontService,sans-serif" font-weight="400" font-size="92" transform="matrix(1 0 0 1 784.896 1599)">(0,0)</text><text font-family="Arial,Arial_MSFontService,sans-serif" font-weight="400" font-size="92" transform="matrix(1 0 0 1 1230.15 1601)">(0,0)</text><text font-family="Arial,Arial_MSFontService,sans-serif" font-weight="400" font-size="92" transform="matrix(1 0 0 1 1691.2 1601)">(0,0)</text><text font-family="Arial,Arial_MSFontService,sans-serif" font-weight="400" font-size="92" transform="matrix(1 0 0 1 777.405 1746)">(1,0)</text><text font-family="Arial,Arial_MSFontService,sans-serif" font-weight="400" font-size="92" transform="matrix(1 0 0 1 1221.13 1746)">(1,0)</text><text font-family="Arial,Arial_MSFontService,sans-serif" font-weight="400" font-size="92" transform="matrix(1 0 0 1 1679.19 2061)">(1,1)</text><path d="M590 1555.84 775.653 1555.84 775.653 1566.16 590 1566.16ZM747.314 1538.5 785.886 1561 747.313 1583.5C744.854 1584.94 741.696 1584.1 740.262 1581.65 738.827 1579.19 739.658 1576.03 742.117 1574.59L773.055 1556.55 773.055 1565.45 742.117 1547.41C739.658 1545.97 738.827 1542.82 740.262 1540.36 741.697 1537.9 744.854 1537.06 747.314 1538.5Z"/><path d="M1408 1550.84 1678.84 1550.84 1678.84 1561.16 1408 1561.16ZM1650.5 1533.5 1689.07 1556 1650.5 1578.5C1648.04 1579.94 1644.88 1579.11 1643.45 1576.65 1642.01 1574.19 1642.84 1571.03 1645.3 1569.59L1676.24 1551.55 1676.24 1560.45 1645.3 1542.41C1642.84 1540.97 1642.01 1537.82 1643.45 1535.36 1644.88 1532.9 1648.04 1532.06 1650.5 1533.5Z"/><path d="M1866 2017.84 2241.54 2017.84 2241.54 2028.16 1866 2028.16ZM2213.2 2000.5 2251.77 2023 2213.2 2045.5C2210.74 2046.94 2207.58 2046.11 2206.15 2043.65 2204.71 2041.19 2205.55 2038.03 2208.01 2036.59L2238.94 2018.55 2238.94 2027.45 2208.01 2009.41C2205.55 2007.97 2204.71 2004.82 2206.15 2002.36 2207.58 1999.9 2210.74 1999.06 2213.2 2000.5Z"/><path d="M2433 2009.84 2706.95 2009.84 2706.95 2020.16 2433 2020.16ZM2678.62 1992.5 2717.19 2015 2678.62 2037.5C2676.16 2038.94 2673 2038.11 2671.56 2035.65 2670.13 2033.19 2670.96 2030.03 2673.42 2028.59L2704.36 2010.55 2704.36 2019.45 2673.42 2001.41C2670.96 1999.97 2670.13 1996.82 2671.56 1994.36 2673 1991.9 2676.16 1991.06 2678.62 1992.5Z"/><path d="M2894 2012.84 3358.35 2012.84 3358.35 2023.16 2894 2023.16ZM3330.01 1995.5 3368.58 2018 3330.01 2040.5C3327.55 2041.94 3324.39 2041.11 3322.96 2038.65 3321.52 2036.19 3322.35 2033.03 3324.81 2031.59L3355.75 2013.55 3355.75 2022.45 3324.81 2004.41C3322.35 2002.97 3321.52 1999.82 3322.96 1997.36 3324.39 1994.9 3327.55 1994.06 3330.01 1995.5Z"/><path d="M605.209 1598.84 772.535 1598.84 772.535 1609.16 605.209 1609.16ZM633.549 1626.5 594.976 1604 633.549 1581.5C636.009 1580.06 639.166 1580.9 640.601 1583.35 642.036 1585.81 641.205 1588.97 638.745 1590.41L607.807 1608.45 607.808 1599.55 638.745 1617.59C641.205 1619.03 642.036 1622.19 640.601 1624.64 639.166 1627.1 636.009 1627.94 633.549 1626.5Z" fill="#FFC000"/><path d="M1418.21 1596.84 1689.05 1596.84 1689.05 1607.16 1418.21 1607.16ZM1446.55 1624.5 1407.98 1602 1446.55 1579.5C1449.01 1578.06 1452.17 1578.9 1453.6 1581.35 1455.04 1583.81 1454.2 1586.97 1451.74 1588.41L1420.81 1606.45 1420.81 1597.55 1451.74 1615.59C1454.2 1617.03 1455.04 1620.19 1453.6 1622.64 1452.17 1625.1 1449.01 1625.94 1446.55 1624.5Z" fill="#FFC000"/><path d="M1876.21 2055.84 2245.72 2055.84 2245.72 2066.16 1876.21 2066.16ZM1904.55 2083.5 1865.98 2061 1904.55 2038.5C1907.01 2037.06 1910.17 2037.9 1911.6 2040.36 1913.04 2042.82 1912.2 2045.97 1909.74 2047.41L1878.81 2065.45 1878.81 2056.55 1909.74 2074.59C1912.2 2076.03 1913.04 2079.19 1911.6 2081.65 1910.17 2084.1 1907.01 2084.94 1904.55 2083.5Z" fill="#FFC000"/><path d="M2890.21 2056.84 3368.6 2056.84 3368.6 2067.16 2890.21 2067.16ZM2918.55 2084.5 2879.98 2062 2918.55 2039.5C2921.01 2038.06 2924.17 2038.9 2925.6 2041.36 2927.04 2043.82 2926.2 2046.97 2923.74 2048.41L2892.81 2066.45 2892.81 2057.55 2923.74 2075.59C2926.2 2077.03 2927.04 2080.19 2925.6 2082.65 2924.17 2085.1 2921.01 2085.94 2918.55 2084.5Z" fill="#FFC000"/><path d="M611.262 1603.99 789.288 1737.31 783.106 1745.56 605.081 1612.25ZM617.368 1643.12 599.981 1601.99 644.343 1607.1C647.172 1607.42 649.201 1609.98 648.875 1612.81 648.549 1615.64 645.992 1617.67 643.163 1617.34L607.582 1613.24 612.921 1606.11 626.867 1639.1C627.976 1641.72 626.748 1644.75 624.125 1645.86 621.502 1646.97 618.477 1645.74 617.368 1643.12Z" fill="#FFC000"/><text font-family="Arial,Arial_MSFontService,sans-serif" font-weight="400" font-size="92" transform="matrix(1 0 0 1 1685.16 1742)">(1,0)</text><text font-family="Arial,Arial_MSFontService,sans-serif" font-weight="400" font-size="92" transform="matrix(1 0 0 1 1685.21 1907)">(0,1)</text><path d="M2888.71 1844.14 3360.16 2010.37 3356.73 2020.1 2885.29 1853.86ZM3339.2 1984.59 3368.1 2018.64 3324.24 2027.03C3321.44 2027.57 3318.74 2025.73 3318.2 2022.94 3317.67 2020.14 3319.5 2017.44 3322.3 2016.9L3357.48 2010.17 3354.52 2018.57 3331.34 1991.26C3329.5 1989.09 3329.76 1985.84 3331.94 1984 3334.11 1982.15 3337.36 1982.42 3339.2 1984.59Z"/><text font-family="Arial,Arial_MSFontService,sans-serif" font-weight="400" font-size="92" transform="matrix(1 0 0 1 1221.13 1901)">(0,1)</text><path d="M962 1698.84 1222.15 1698.84 1222.15 1709.16 962 1709.16ZM1193.81 1681.5 1232.38 1704 1193.81 1726.5C1191.35 1727.94 1188.2 1727.11 1186.76 1724.65 1185.33 1722.19 1186.16 1719.03 1188.62 1717.59L1219.55 1699.55 1219.55 1708.45 1188.62 1690.41C1186.16 1688.97 1185.33 1685.82 1186.76 1683.36 1188.2 1680.9 1191.35 1680.06 1193.81 1681.5Z"/><path d="M960.209 1740.84 1225.97 1740.84 1225.97 1751.16 960.209 1751.16ZM988.549 1768.5 949.976 1746 988.549 1723.5C991.009 1722.06 994.166 1722.9 995.601 1725.35 997.036 1727.81 996.205 1730.97 993.745 1732.41L962.808 1750.45 962.808 1741.55 993.745 1759.59C996.205 1761.03 997.036 1764.19 995.601 1766.64 994.166 1769.1 991.009 1769.94 988.549 1768.5Z" fill="#FFC000"/><path d="M1407.67 1743.12 1691.46 2057.58 1683.81 2064.49 1400.01 1750.03ZM1406.12 1782.69 1396.98 1738.98 1439.53 1752.54C1442.24 1753.41 1443.74 1756.31 1442.88 1759.02 1442.01 1761.73 1439.11 1763.23 1436.4 1762.37L1402.27 1751.49 1408.89 1745.52 1416.22 1780.58C1416.8 1783.37 1415.01 1786.1 1412.23 1786.68 1409.44 1787.27 1406.71 1785.48 1406.12 1782.69Z" fill="#FFC000"/><path d="M979.45 1595.65 1230.94 1903.73 1222.95 1910.25 971.461 1602.17ZM975.947 1635.09 968.985 1590.98 1010.81 1606.63C1013.47 1607.63 1014.83 1610.6 1013.83 1613.27 1012.83 1615.94 1009.86 1617.29 1007.19 1616.29L973.649 1603.74 980.549 1598.1 986.133 1633.48C986.577 1636.3 984.657 1638.94 981.844 1639.38 979.031 1639.82 976.391 1637.9 975.947 1635.09Z" fill="#FFC000"/><text font-family="Arial,Arial_MSFontService,sans-serif" font-weight="400" font-size="92" transform="matrix(1 0 0 1 3364.63 2072)">(1,1)</text><path d="M970 1546.84 1230.15 1546.84 1230.15 1557.16 970 1557.16ZM1201.81 1529.5 1240.38 1552 1201.81 1574.5C1199.35 1575.94 1196.19 1575.11 1194.76 1572.65 1193.33 1570.19 1194.16 1567.03 1196.62 1565.59L1227.55 1547.55 1227.55 1556.45 1196.62 1538.41C1194.16 1536.97 1193.33 1533.82 1194.76 1531.36 1196.19 1528.9 1199.35 1528.06 1201.81 1529.5Z"/><path d="M968.209 1588.84 1233.97 1588.84 1233.97 1599.16 968.209 1599.16ZM996.549 1616.5 957.976 1594 996.549 1571.5C999.009 1570.06 1002.17 1570.9 1003.6 1573.36 1005.04 1575.81 1004.2 1578.97 1001.75 1580.41L970.807 1598.45 970.808 1589.55 1001.74 1607.59C1004.2 1609.03 1005.04 1612.19 1003.6 1614.65 1002.17 1617.1 999.009 1617.94 996.549 1616.5Z" fill="#FFC000"/><path d="M1402 1692.84 1672.84 1692.84 1672.84 1703.16 1402 1703.16ZM1644.5 1675.5 1683.07 1698 1644.5 1720.5C1642.04 1721.94 1638.88 1721.11 1637.45 1718.65 1636.01 1716.19 1636.84 1713.03 1639.3 1711.59L1670.24 1693.55 1670.24 1702.45 1639.3 1684.41C1636.84 1682.97 1636.01 1679.82 1637.45 1677.36 1638.88 1674.9 1642.04 1674.06 1644.5 1675.5Z"/><path d="M1412.21 1739.84 1683.05 1739.84 1683.05 1750.16 1412.21 1750.16ZM1440.55 1767.5 1401.98 1745 1440.55 1722.5C1443.01 1721.06 1446.17 1721.9 1447.6 1724.35 1449.04 1726.81 1448.2 1729.97 1445.75 1731.41L1414.81 1749.45 1414.81 1740.55 1445.75 1758.59C1448.2 1760.03 1449.04 1763.19 1447.6 1765.64 1446.17 1768.1 1443.01 1768.94 1440.55 1767.5Z" fill="#FFC000"/><path d="M1408 1854.84 1678.84 1854.84 1678.84 1865.16 1408 1865.16ZM1650.5 1837.5 1689.07 1860 1650.5 1882.5C1648.04 1883.94 1644.88 1883.11 1643.45 1880.65 1642.01 1878.19 1642.84 1875.03 1645.3 1873.59L1676.24 1855.55 1676.24 1864.45 1645.3 1846.41C1642.84 1844.97 1642.01 1841.82 1643.45 1839.36 1644.88 1836.9 1648.04 1836.06 1650.5 1837.5Z"/><path d="M1418.21 1900.84 1689.05 1900.84 1689.05 1911.16 1418.21 1911.16ZM1446.55 1928.5 1407.98 1906 1446.55 1883.5C1449.01 1882.06 1452.17 1882.9 1453.6 1885.36 1455.04 1887.82 1454.2 1890.97 1451.74 1892.41L1420.81 1910.45 1420.81 1901.55 1451.74 1919.59C1454.2 1921.03 1455.04 1924.19 1453.6 1926.65 1452.17 1929.1 1449.01 1929.94 1446.55 1928.5Z" fill="#FFC000"/><text font-family="Arial,Arial_MSFontService,sans-serif" font-weight="400" font-size="92" transform="matrix(1 0 0 1 2254.42 1603)">(0,0)</text><text font-family="Arial,Arial_MSFontService,sans-serif" font-weight="400" font-size="92" transform="matrix(1 0 0 1 2242.41 2062)">(1,1)</text><text font-family="Arial,Arial_MSFontService,sans-serif" font-weight="400" font-size="92" transform="matrix(1 0 0 1 2248.43 1908)">(0,1)</text><path d="M1872 1855.84 2247.54 1855.84 2247.54 1866.16 1872 1866.16ZM2219.2 1838.5 2257.77 1861 2219.2 1883.5C2216.74 1884.94 2213.58 1884.11 2212.15 1881.65 2210.72 1879.19 2211.55 1876.03 2214.01 1874.59L2244.94 1856.55 2244.94 1865.45 2214.01 1847.41C2211.55 1845.97 2210.72 1842.82 2212.15 1840.36 2213.58 1837.9 2216.74 1837.06 2219.2 1838.5Z"/><path d="M1882.21 1894.84 2251.72 1894.84 2251.72 1905.16 1882.21 1905.16ZM1910.55 1922.5 1871.98 1900 1910.55 1877.5C1913.01 1876.06 1916.17 1876.9 1917.6 1879.35 1919.04 1881.81 1918.2 1884.97 1915.75 1886.41L1884.81 1904.45 1884.81 1895.55 1915.75 1913.59C1918.2 1915.03 1919.04 1918.19 1917.6 1920.64 1916.17 1923.1 1913.01 1923.94 1910.55 1922.5Z" fill="#FFC000"/><path d="M1872 1556.84 2247.54 1556.84 2247.54 1567.16 1872 1567.16ZM2219.2 1539.5 2257.77 1562 2219.2 1584.5C2216.74 1585.94 2213.58 1585.11 2212.15 1582.65 2210.72 1580.19 2211.55 1577.03 2214.01 1575.59L2244.94 1557.55 2244.94 1566.45 2214.01 1548.41C2211.55 1546.97 2210.72 1543.82 2212.15 1541.36 2213.58 1538.9 2216.74 1538.06 2219.2 1539.5Z"/><path d="M1882.21 1594.84 2251.72 1594.84 2251.72 1605.16 1882.21 1605.16ZM1910.55 1622.5 1871.98 1600 1910.55 1577.5C1913.01 1576.06 1916.17 1576.9 1917.6 1579.36 1919.04 1581.82 1918.2 1584.97 1915.75 1586.41L1884.81 1604.45 1884.81 1595.55 1915.75 1613.59C1918.2 1615.03 1919.04 1618.19 1917.6 1620.65 1916.17 1623.1 1913.01 1623.94 1910.55 1622.5Z" fill="#FFC000"/><path d="M1869.36 1687.09 2247.37 2012.25 2240.65 2020.06 1862.64 1694.91ZM2237.2 1980.62 2251.77 2022.83 2207.85 2014.73C2205.05 2014.22 2203.2 2011.53 2203.72 2008.73 2204.23 2005.93 2206.92 2004.08 2209.72 2004.59L2244.95 2011.08 2239.14 2017.84 2227.45 1983.98C2226.52 1981.29 2227.95 1978.35 2230.64 1977.43 2233.33 1976.5 2236.27 1977.93 2237.2 1980.62Z"/><text font-family="Arial,Arial_MSFontService,sans-serif" font-weight="400" font-size="92" transform="matrix(1 0 0 1 2700.93 2067)">(1,1)</text><path d="M2436.81 1555.53 2713.97 1859.44 2706.35 1866.39 2429.19 1562.47ZM2707.69 1826.81 2717.06 1870.47 2674.44 1857.13C2671.73 1856.28 2670.21 1853.39 2671.06 1850.67 2671.91 1847.96 2674.81 1846.44 2677.52 1847.29L2711.7 1857.99 2705.12 1863.99 2697.61 1828.97C2697.01 1826.19 2698.79 1823.45 2701.57 1822.85 2704.35 1822.25 2707.1 1824.03 2707.69 1826.81Z"/><path d="M2430.21 2054.84 2705.17 2054.84 2705.17 2065.16 2430.21 2065.16ZM2458.55 2082.5 2419.98 2060 2458.55 2037.5C2461.01 2036.06 2464.17 2036.9 2465.6 2039.36 2467.04 2041.81 2466.2 2044.97 2463.74 2046.41L2432.81 2064.45 2432.81 2055.55 2463.74 2073.59C2466.2 2075.03 2467.04 2078.19 2465.6 2080.65 2464.17 2083.1 2461.01 2083.94 2458.55 2082.5Z" fill="#FFC000"/><path d="M2434.58 857.536 2698.84 1010.36 2693.68 1019.29 2429.42 866.464ZM2682.99 981.159 2705.12 1019.95 2660.47 1020.12C2657.62 1020.13 2655.3 1017.83 2655.29 1014.98 2655.28 1012.13 2657.58 1009.81 2660.43 1009.8L2696.24 1009.67 2691.78 1017.38 2674.04 986.269C2672.63 983.795 2673.49 980.646 2675.96 979.235 2678.43 977.824 2681.58 978.685 2682.99 981.159Z"/><text font-family="Arial,Arial_MSFontService,sans-serif" font-weight="400" font-size="92" transform="matrix(1 0 0 1 2703.98 1902)">(0,1)</text><path d="M2432 1857.84 2706.96 1857.84 2706.96 1868.16 2432 1868.16ZM2678.62 1840.5 2717.2 1863 2678.62 1885.5C2676.16 1886.94 2673.01 1886.11 2671.57 1883.65 2670.14 1881.19 2670.97 1878.03 2673.43 1876.59L2704.36 1858.55 2704.36 1867.45 2673.43 1849.41C2670.97 1847.97 2670.14 1844.82 2671.57 1842.36 2673.01 1839.9 2676.16 1839.06 2678.62 1840.5Z"/><path d="M2442.21 1896.84 2705.1 1896.84 2705.1 1907.16 2442.21 1907.16ZM2470.55 1924.5 2431.98 1902 2470.55 1879.5C2473.01 1878.06 2476.17 1878.9 2477.6 1881.36 2479.04 1883.81 2478.2 1886.97 2475.74 1888.41L2444.81 1906.45 2444.81 1897.55 2475.74 1915.59C2478.2 1917.03 2479.04 1920.19 2477.6 1922.65 2476.17 1925.1 2473.01 1925.94 2470.55 1924.5Z" fill="#FFC000"/><g><g><g><path d="M629.604 177.6 629.604 304.96" stroke="#000000" stroke-width="50.4782" stroke-miterlimit="3.25" stroke-opacity="0.7" fill="none" transform="matrix(1 0 0 1.00007 3528.73 501.956)"/><path d="M604.611 284.182 599.576 286.65 587.494 292.045 580.229 294.911 572.902 297.396 566.08 299.118 560.332 299.712 555.133 299.118 548.401 297.396 540.828 294.911 533.1 292.045 519.898 286.65 514.286 284.182 560.336 452.442Z" fill="#000000" fill-rule="evenodd" fill-opacity="0.7" transform="matrix(1 0 0 1.00007 3598 507.204)"/><path d="M555.19 521.005 554.858 520.944 518.57 512.539 483.007 502.584 448.162 491.076 414.043 478.014 380.649 463.401 352.437 449.445" stroke="#FF7F00" stroke-width="16.8261" stroke-miterlimit="3.25" stroke-opacity="0.7" fill="none" transform="matrix(1 0 0 1.00007 3528.73 501.956)"/><path d="M273.784 488.698 274.383 483.122 276.248 470.023 277.692 462.348 279.496 454.824 281.668 448.133 284.231 442.951 287.503 438.863 292.55 434.087 298.683 429.003 305.227 423.989 316.825 415.691 321.905 412.255 154.977 361.592Z" fill="#FF7F00" fill-rule="evenodd" fill-opacity="0.7" transform="matrix(1 0 0 1.00007 3598 507.204)"/><path d="M235.471 285.805 422.804 198.534" stroke="#FF7F00" stroke-width="16.8261" stroke-miterlimit="3.25" stroke-opacity="0.7" fill="none" transform="matrix(1 0 0 1.00007 3528.73 501.956)"/><path d="M320.757 159.704 325.119 163.23 335.115 171.901 340.781 177.276 346.127 182.873 350.568 188.326 353.532 193.287 355.192 198.252 356.471 205.082 357.419 212.991 358.087 221.211 358.767 235.454 358.903 241.588 491.978 128.791Z" fill="#FF7F00" fill-rule="evenodd" fill-opacity="0.7" transform="matrix(1 0 0 1.00007 3598 507.204)"/><path d="M241.53 329.74 241.862 329.802 278.151 338.206 313.718 348.165 348.559 359.674 382.678 372.736 416.076 387.348 444.284 401.304" stroke="#000000" stroke-width="16.8261" stroke-miterlimit="3.25" stroke-opacity="0.7" fill="none" transform="matrix(1 0 0 1.00007 3528.73 501.956)"/><path d="M384.392 351.552 383.797 357.127 381.928 370.231 380.485 377.906 378.681 385.429 376.508 392.12 373.945 397.298 370.674 401.386 365.631 406.162 359.493 411.25 352.95 416.265 341.351 424.559 336.271 427.999 503.199 478.661Z" fill="#000000" fill-rule="evenodd" fill-opacity="0.7" transform="matrix(1 0 0 1.00007 3598 507.204)"/><path d="M1024.78 285.867 836.49 198.35" stroke="#FF7F00" stroke-width="16.8261" stroke-miterlimit="3.25" stroke-dasharray="4.19832 4.19832" stroke-opacity="0.7" fill="none" transform="matrix(1 0 0 1.00007 3528.73 501.956)"/><path d="M762.638 239.8 762.523 234.196 762.72 220.965 763.183 213.167 764.02 205.476 765.332 198.563 767.218 193.102 769.948 188.633 774.347 183.258 779.788 177.436 785.647 171.635 796.106 161.939 800.71 157.888 628.714 128.729Z" fill="#FF7F00" fill-rule="evenodd" fill-opacity="0.7" transform="matrix(1 0 0 1.00007 3598 507.204)"/><path d="M1024.78 349.432 836.494 436.945" stroke="#000000" stroke-width="16.8261" stroke-miterlimit="3.25" stroke-dasharray="4.19832 4.19832" stroke-opacity="0.7" fill="none" transform="matrix(1 0 0 1.00007 3528.73 501.956)"/><path d="M799.968 465.304 795.606 461.778 785.618 453.094 779.956 447.715 774.618 442.119 770.178 436.658 767.222 431.697 765.565 426.728 764.29 419.897 763.351 411.984 762.691 403.768 762.023 389.521 761.896 383.392 628.718 496.07Z" fill="#000000" fill-rule="evenodd" fill-opacity="0.7" transform="matrix(1 0 0 1.00007 3598 507.204)"/><path d="M705.014 102.195C705.014 122.194 697.068 141.373 682.927 155.514 668.783 169.659 649.603 177.6 629.604 177.6 609.604 177.6 590.425 169.659 576.284 155.514 562.14 141.373 554.198 122.194 554.198 102.195 554.198 82.1952 562.14 63.0116 576.284 48.871 590.425 34.7304 609.604 26.7848 629.604 26.7848 649.603 26.7848 668.783 34.7304 682.927 48.871 697.068 63.0116 705.014 82.1952 705.014 102.195Z" stroke="#000000" stroke-width="1.04958" stroke-linecap="square" stroke-miterlimit="3.25" stroke-opacity="0.7" fill="#A3B3CC" fill-rule="evenodd" transform="matrix(1 0 0 1.00007 3528.73 501.956)"/><path d="M23.6155-61.8596C29.585-61.8555 34.2507-59.7276 37.6126-55.4719 41.6142-50.429 43.6149-42.0652 43.619-30.3845 43.6149-18.7284 41.5978-10.3523 37.5676-5.25199 34.2343-1.05368 29.585 1.04548 23.6155 1.04958 17.6214 1.04548 12.7876-1.25458 9.11822-5.86288 5.44469-10.4671 3.60793-18.6833 3.61203-30.5075 3.60793-42.1062 5.62509-50.4536 9.66351-55.5539 12.9926-59.7522 17.646-61.8555 23.6155-61.8596ZM23.6155-52.069C22.1888-52.0649 20.9137-51.6098 19.7944-50.6996 18.671-49.7894 17.8018-48.1576 17.1869-45.8043 16.371-42.7498 15.9651-37.6085 15.9692-30.3845 15.9651-23.1522 16.33-18.1872 17.0598-15.4854 17.7895-12.7794 18.7079-10.9796 19.8149-10.0858 20.9219-9.18792 22.1888-8.73693 23.6155-8.74102 25.0423-8.73693 26.3174-9.19202 27.4408-10.1063 28.56-11.0124 29.4292-12.6441 30.0483-15.0016 30.8601-18.0232 31.266-23.1522 31.266-30.3845 31.266-37.6085 30.9011-42.5735 30.1713-45.2795 29.4415-47.9813 28.5231-49.7894 27.4203-50.6996 26.3092-51.6098 25.0423-52.0649 23.6155-52.069Z" transform="matrix(1 0 0 1.00007 4098.51 633.996)"/><path d="M23.6155-61.8596C29.585-61.8555 34.2507-59.7276 37.6126-55.4719 41.6142-50.429 43.6149-42.0652 43.619-30.3845 43.6149-18.7284 41.5978-10.3523 37.5676-5.25199 34.2343-1.05368 29.585 1.04548 23.6155 1.04958 17.6214 1.04548 12.7876-1.25458 9.11822-5.86288 5.44469-10.4671 3.60793-18.6833 3.61203-30.5075 3.60793-42.1062 5.62509-50.4536 9.66351-55.5539 12.9926-59.7522 17.646-61.8555 23.6155-61.8596ZM23.6155-52.069C22.1888-52.0649 20.9137-51.6098 19.7944-50.6996 18.671-49.7894 17.8018-48.1576 17.1869-45.8043 16.371-42.7498 15.9651-37.6085 15.9692-30.3845 15.9651-23.1522 16.33-18.1872 17.0598-15.4854 17.7895-12.7794 18.7079-10.9796 19.8149-10.0858 20.9219-9.18792 22.1888-8.73693 23.6155-8.74102 25.0423-8.73693 26.3174-9.19202 27.4408-10.1063 28.56-11.0124 29.4292-12.6441 30.0483-15.0016 30.8601-18.0232 31.266-23.1522 31.266-30.3845 31.266-37.6085 30.9011-42.5735 30.1713-45.2795 29.4415-47.9813 28.5231-49.7894 27.4203-50.6996 26.3092-51.6098 25.0423-52.0649 23.6155-52.069Z" transform="matrix(1 0 0 1.00007 4170.29 633.996)"/><path d="M705.014 533.1C705.014 553.099 697.072 572.279 682.927 586.419 668.787 600.56 649.607 608.506 629.608 608.506 609.609 608.506 590.425 600.56 576.284 586.419 562.144 572.279 554.198 553.099 554.198 533.1 554.198 513.101 562.144 493.917 576.284 479.777 590.425 465.636 609.609 457.69 629.608 457.69 649.607 457.69 668.787 465.636 682.927 479.777 697.072 493.917 705.014 513.101 705.014 533.1Z" stroke="#000000" stroke-width="1.04958" stroke-linecap="square" stroke-miterlimit="3.25" stroke-opacity="0.7" fill="#A3B3CC" fill-rule="evenodd" transform="matrix(1 0 0 1.00007 3528.73 501.956)"/><path d="M33.8694 0 22.0617 0 22.0617-44.5046C17.7444-40.4662 12.6605-37.4814 6.80586-35.5504L6.80586-46.2676C9.8849-47.2721 13.2345-49.1867 16.8507-52.0034 20.4627-54.8159 22.939-58.0999 24.2879-61.8596L33.8694-61.8596Z" transform="matrix(1 0 0 1.00007 4098.51 1064.93)"/><path d="M33.8694 0 22.0617 0 22.0617-44.5046C17.7444-40.4662 12.6605-37.4814 6.80586-35.5504L6.80586-46.2676C9.8849-47.2721 13.2345-49.1867 16.8507-52.0034 20.4627-54.8159 22.939-58.0999 24.2879-61.8596L33.8694-61.8596Z" transform="matrix(1 0 0 1.00007 4170.29 1064.93)"/><path d="M242.522 317.649C242.522 337.649 234.577 356.828 220.436 370.973 206.296 385.113 187.116 393.059 167.117 393.059 147.117 393.059 127.934 385.113 113.793 370.973 99.6526 356.828 91.707 337.649 91.707 317.649 91.707 297.65 99.6526 278.471 113.793 264.33 127.934 250.185 147.117 242.24 167.117 242.24 187.116 242.24 206.296 250.185 220.436 264.33 234.577 278.471 242.522 297.65 242.522 317.649Z" stroke="#000000" stroke-width="1.04958" stroke-linecap="square" stroke-miterlimit="3.25" stroke-opacity="0.7" fill="#A3B3CC" fill-rule="evenodd" transform="matrix(1 0 0 1.00007 3528.73 501.956)"/><path d="M33.8694 0 22.0617 0 22.0617-44.5046C17.7444-40.4662 12.6605-37.4814 6.80586-35.5504L6.80586-46.2676C9.8849-47.2721 13.2345-49.1867 16.8507-52.0034 20.4627-54.8159 22.939-58.0999 24.2879-61.8596L33.8694-61.8596Z" transform="matrix(1 0 0 1.00007 3636.02 849.466)"/><path d="M23.6155-61.8596C29.585-61.8555 34.2507-59.7276 37.6126-55.4719 41.6142-50.429 43.6149-42.0652 43.619-30.3845 43.6149-18.7284 41.5978-10.3523 37.5676-5.25199 34.2343-1.05368 29.585 1.04548 23.6155 1.04958 17.6214 1.04548 12.7876-1.25458 9.11822-5.86288 5.44469-10.4671 3.60793-18.6833 3.61203-30.5075 3.60793-42.1062 5.62509-50.4536 9.66351-55.5539 12.9926-59.7522 17.646-61.8555 23.6155-61.8596ZM23.6155-52.069C22.1888-52.0649 20.9137-51.6098 19.7944-50.6996 18.671-49.7894 17.8018-48.1576 17.1869-45.8043 16.371-42.7498 15.9651-37.6085 15.9692-30.3845 15.9651-23.1522 16.33-18.1872 17.0598-15.4854 17.7895-12.7794 18.7079-10.9796 19.8149-10.0858 20.9219-9.18792 22.1888-8.73693 23.6155-8.74102 25.0423-8.73693 26.3174-9.19202 27.4408-10.1063 28.56-11.0124 29.4292-12.6441 30.0483-15.0016 30.8601-18.0232 31.266-23.1522 31.266-30.3845 31.266-37.6085 30.9011-42.5735 30.1713-45.2795 29.4415-47.9813 28.5231-49.7894 27.4203-50.6996 26.3092-51.6098 25.0423-52.0649 23.6155-52.069Z" transform="matrix(1 0 0 1.00007 3707.8 849.466)"/><path d="M1168.58 317.649C1168.58 337.649 1160.63 356.828 1146.49 370.969 1132.35 385.113 1113.16 393.055 1093.17 393.055 1073.17 393.055 1053.99 385.113 1039.85 370.969 1025.71 356.828 1017.76 337.649 1017.76 317.649 1017.76 297.65 1025.71 278.471 1039.85 264.326 1053.99 250.185 1073.17 242.24 1093.17 242.24 1113.16 242.24 1132.35 250.185 1146.49 264.326 1160.63 278.471 1168.58 297.65 1168.58 317.649Z" stroke="#000000" stroke-width="1.04958" stroke-linecap="square" stroke-miterlimit="3.25" stroke-opacity="0.7" fill="#A3B3CC" fill-rule="evenodd" transform="matrix(1 0 0 1.00007 3528.73 501.956)"/><path d="M23.6155-61.8596C29.585-61.8555 34.2507-59.7276 37.6126-55.4719 41.6142-50.429 43.6149-42.0652 43.619-30.3845 43.6149-18.7284 41.5978-10.3523 37.5676-5.25199 34.2343-1.05368 29.585 1.04548 23.6155 1.04958 17.6214 1.04548 12.7876-1.25458 9.11822-5.86288 5.44469-10.4671 3.60793-18.6833 3.61203-30.5075 3.60793-42.1062 5.62509-50.4536 9.66351-55.5539 12.9926-59.7522 17.646-61.8555 23.6155-61.8596ZM23.6155-52.069C22.1888-52.0649 20.9137-51.6098 19.7944-50.6996 18.671-49.7894 17.8018-48.1576 17.1869-45.8043 16.371-42.7498 15.9651-37.6085 15.9692-30.3845 15.9651-23.1522 16.33-18.1872 17.0598-15.4854 17.7895-12.7794 18.7079-10.9796 19.8149-10.0858 20.9219-9.18792 22.1888-8.73693 23.6155-8.74102 25.0423-8.73693 26.3174-9.19202 27.4408-10.1063 28.56-11.0124 29.4292-12.6441 30.0483-15.0016 30.8601-18.0232 31.266-23.1522 31.266-30.3845 31.266-37.6085 30.9011-42.5735 30.1713-45.2795 29.4415-47.9813 28.5231-49.7894 27.4203-50.6996 26.3092-51.6098 25.0423-52.0649 23.6155-52.069Z" transform="matrix(1 0 0 1.00007 4562.07 849.465)"/><path d="M33.8694 0 22.0617 0 22.0617-44.5046C17.7444-40.4662 12.6605-37.4814 6.80586-35.5504L6.80586-46.2676C9.8849-47.2721 13.2345-49.1867 16.8507-52.0034 20.4627-54.8159 22.939-58.0999 24.2879-61.8596L33.8694-61.8596Z" transform="matrix(1 0 0 1.00007 4633.85 849.465)"/></g></g></g></g></svg>