<svg width="4477" height="2155" xmlns="http://www.w3.org/2000/svg" xmlns:xlink="http://www.w3.org/1999/xlink" xml:space="preserve" overflow="hidden"><g transform="translate(44 -239)"><path d="M197 2204.12 3526.59 2204.13 3526.59 2217.88 197 2217.88ZM3519.71 2190.38 3560.96 2211 3519.71 2231.63Z"/><path d="M6.875-1.32602e-06 6.87535 1836.73-6.87465 1836.73-6.875 1.32602e-06ZM20.6254 1829.86 0.000360892 1871.11-20.6246 1829.86Z" transform="matrix(1 0 0 -1 242 2313.11)"/><path d="M3413.27 2265.88C3417.96 2265.88 3421.39 2267.68 3423.54 2271.27 3425.69 2274.85 3426.77 2280.76 3426.77 2289 3426.77 2298.66 3426.31 2309.14 3425.4 2320.43L3426.05 2320.43C3437.68 2300.91 3447.3 2283.11 3454.91 2267.03L3469.91 2267.03 3468.97 2270.48C3464.33 2276.08 3457.54 2285.29 3448.59 2298.11 3439.64 2310.94 3431.29 2323.66 3423.54 2336.3 3421.96 2346.25 3419.95 2355.63 3417.51 2364.43L3406.81 2364.43 3404.73 2361.06C3406.65 2353.55 3410.07 2345.27 3415 2336.22 3415.43 2327.18 3415.64 2317.95 3415.64 2308.52 3415.64 2300.53 3415.48 2294.33 3415.14 2289.93 3414.81 2285.53 3414.31 2282.21 3413.67 2279.99 3413.02 2277.76 3412.26 2276.23 3411.37 2275.39 3410.49 2274.56 3409.4 2274.14 3408.11 2274.14 3405.43 2274.14 3402.34 2276.08 3398.85 2279.95L3394.83 2275.93C3397.12 2273.87 3398.91 2272.32 3400.17 2271.27 3401.44 2270.21 3402.76 2269.28 3404.12 2268.47 3405.49 2267.65 3406.9 2267.02 3408.36 2266.56 3409.82 2266.11 3411.46 2265.88 3413.27 2265.88Z" fill-rule="evenodd"/><text fill="#000000" fill-opacity="0" font-family="Arial,Arial_MSFontService,sans-serif" font-size="98.5503" x="3394.83" y="2352.11">ğ›¾</text><path d="M109.752 519.813C116.116 519.813 121.978 520.531 127.337 521.966L123.82 538.188 116.283 538.188C116.188 534.551 115.889 531.919 115.386 530.292 114.884 528.665 114.07 527.445 112.946 526.632 111.821 525.818 110.23 525.411 108.172 525.411 103.339 525.411 98.9969 527.337 95.1449 531.189 91.2928 535.042 88.1466 540.497 85.7062 547.555 83.2657 554.613 82.0455 561.396 82.0455 567.904 82.0455 572.784 83.0026 576.409 84.9166 578.778 86.8307 581.146 89.7018 582.331 93.5299 582.331 97.8844 582.331 101.653 581.505 104.835 579.854 108.017 578.204 111.379 575.608 114.92 572.067L119.298 576.445C114.8 581.422 110.266 585.058 105.696 587.355 101.126 589.652 96.2096 590.801 90.9459 590.801 84.0074 590.801 78.7438 588.743 75.1549 584.628 71.566 580.512 69.7716 574.531 69.7716 566.683 69.7716 561.563 70.7286 555.941 72.6427 549.816 74.5568 543.691 77.3561 538.307 81.0406 533.666 84.7252 529.024 89.0319 525.555 93.9606 523.258 98.8893 520.961 104.153 519.813 109.752 519.813Z" fill-rule="evenodd"/><text fill="#000000" fill-opacity="0" font-family="Arial,Arial_MSFontService,sans-serif" font-size="70.9878" x="69.7716" y="581.927">ğ‘</text><path d="M160.751 559.499 163.383 559.499C163.192 562.562 163.096 566.805 163.096 572.228L163.096 613.093C163.096 614.943 163.2 616.339 163.407 617.28 163.614 618.221 163.981 618.987 164.508 619.577 165.034 620.167 165.792 620.63 166.781 620.965 167.77 621.3 169.014 621.555 170.513 621.73 172.012 621.906 173.99 622.025 176.447 622.089L176.447 625.582 141.084 625.582 141.084 622.089C144.625 621.93 147.153 621.714 148.669 621.443 150.184 621.172 151.34 620.765 152.138 620.223 152.936 619.681 153.518 618.915 153.885 617.926 154.251 616.937 154.435 615.326 154.435 613.093L154.435 574.286C154.435 573.009 154.212 572.076 153.765 571.486 153.318 570.896 152.664 570.601 151.803 570.601 150.782 570.601 149.331 571.127 147.449 572.18 145.566 573.233 143.238 574.684 140.462 576.535L138.357 572.85Z" fill-rule="evenodd"/><text fill="#000000" fill-opacity="0" font-family="Arial,Arial_MSFontService,sans-serif" font-size="66.083" x="138.357" y="617.322">1</text><path d="M0 0 80.0654 1684.26" stroke="#FF0000" stroke-width="27.5" stroke-miterlimit="8" fill="none" fill-rule="evenodd" transform="matrix(1 0 0 -1 598 2169.26)"/><path d="M1192.52 2151.08 1009 472" stroke="#0070C0" stroke-width="27.5" stroke-miterlimit="8" fill="none" fill-rule="evenodd"/><path d="M1587.59 2151.66 1476 493" stroke="#7030A0" stroke-width="27.5" stroke-miterlimit="8" fill="none" fill-rule="evenodd"/><path d="M0 0 113.374 759.837" stroke="#000000" stroke-width="27.5" stroke-miterlimit="8" fill="none" fill-rule="evenodd" transform="matrix(1 0 0 -1 1974 2148.84)"/><path d="M3114.81 2147.52 2811 475" stroke="#0070C0" stroke-width="27.5" stroke-miterlimit="8" fill="none" fill-rule="evenodd"/><path d="M2506.59 2156.24 2447 482" stroke="#FF0000" stroke-width="27.5" stroke-miterlimit="8" fill="none" fill-rule="evenodd"/><path d="M204 1389 4425.85 1391.8" stroke="#A6A6A6" stroke-width="13.75" stroke-miterlimit="8" stroke-dasharray="13.75 13.75" fill="none" fill-rule="evenodd"/><text font-family="Arial,Arial_MSFontService,sans-serif" font-weight="400" font-size="73" transform="matrix(1 0 0 1 553.246 342)">creation</text><text font-family="Arial,Arial_MSFontService,sans-serif" font-weight="400" font-size="92" transform="matrix(1 0 0 1 591.126 438)">(1,0)</text><text font-family="Arial,Arial_MSFontService,sans-serif" font-weight="400" font-size="73" transform="matrix(1 0 0 1 969.649 334)">creation</text><text font-family="Arial,Arial_MSFontService,sans-serif" font-weight="400" font-size="92" transform="matrix(1 0 0 1 1007.53 430)">(</text><text font-family="Arial,Arial_MSFontService,sans-serif" font-weight="400" font-size="92" transform="matrix(1 0 0 1 1037.89 430)">0</text><text font-family="Arial,Arial_MSFontService,sans-serif" font-weight="400" font-size="92" transform="matrix(1 0 0 1 1088.88 430)">,1</text><text font-family="Arial,Arial_MSFontService,sans-serif" font-weight="400" font-size="92" transform="matrix(1 0 0 1 1165.08 430)">)</text><text font-family="Arial,Arial_MSFontService,sans-serif" font-weight="400" font-size="73" transform="matrix(1 0 0 1 1324.52 333)">creation</text><text font-family="Arial,Arial_MSFontService,sans-serif" font-weight="400" font-size="92" transform="matrix(1 0 0 1 1372.18 436)">(</text><text font-family="Arial,Arial_MSFontService,sans-serif" font-weight="400" font-size="92" transform="matrix(1 0 0 1 1402.54 436)">1</text><text font-family="Arial,Arial_MSFontService,sans-serif" font-weight="400" font-size="92" transform="matrix(1 0 0 1 1453.53 436)">,1</text><text font-family="Arial,Arial_MSFontService,sans-serif" font-weight="400" font-size="92" transform="matrix(1 0 0 1 1529.73 436)">)</text><text font-family="Arial,Arial_MSFontService,sans-serif" font-weight="400" font-size="73" transform="matrix(1 0 0 1 1774.49 341)">annihilation</text><text font-family="Arial,Arial_MSFontService,sans-serif" font-weight="400" font-size="92" transform="matrix(1 0 0 1 1849.07 433)">(0,0)</text><text font-family="Arial,Arial_MSFontService,sans-serif" font-weight="400" font-size="73" transform="matrix(1 0 0 1 2264.08 340)">annihilation</text><text font-family="Arial,Arial_MSFontService,sans-serif" font-weight="400" font-size="92" transform="matrix(1 0 0 1 2334.26 432)">(</text><text font-family="Arial,Arial_MSFontService,sans-serif" font-weight="400" font-size="92" transform="matrix(1 0 0 1 2364.62 432)">1</text><text font-family="Arial,Arial_MSFontService,sans-serif" font-weight="400" font-size="92" transform="matrix(1 0 0 1 2415.61 432)">,</text><text font-family="Arial,Arial_MSFontService,sans-serif" font-weight="400" font-size="92" transform="matrix(1 0 0 1 2440.82 432)">0</text><text font-family="Arial,Arial_MSFontService,sans-serif" font-weight="400" font-size="92" transform="matrix(1 0 0 1 2491.81 432)">)</text><text font-family="Arial,Arial_MSFontService,sans-serif" font-weight="400" font-size="73" transform="matrix(1 0 0 1 2673.21 336)">annihilation</text><text font-family="Arial,Arial_MSFontService,sans-serif" font-weight="400" font-size="92" transform="matrix(1 0 0 1 2762.4 435)">(</text><text font-family="Arial,Arial_MSFontService,sans-serif" font-weight="400" font-size="92" transform="matrix(1 0 0 1 2792.76 435)">0</text><text font-family="Arial,Arial_MSFontService,sans-serif" font-weight="400" font-size="92" transform="matrix(1 0 0 1 2843.75 435)">,</text><text font-family="Arial,Arial_MSFontService,sans-serif" font-weight="400" font-size="92" transform="matrix(1 0 0 1 2868.96 435)">1</text><text font-family="Arial,Arial_MSFontService,sans-serif" font-weight="400" font-size="92" transform="matrix(1 0 0 1 2919.95 435)">)</text><path d="M3575.13 2388.83 3548 251" stroke="#A6A6A6" stroke-width="13.75" stroke-miterlimit="8" stroke-dasharray="13.75 13.75" fill="none" fill-rule="evenodd"/><g><g><g><path d="M702.183 662.997 659.53 674 605.994 684.246 552.371 690.948 498.648 694.12 444.839 693.754 390.937 689.853 389.942 689.72" stroke="#000000" stroke-width="10.7478" stroke-miterlimit="3.25" stroke-opacity="0.7" fill="none" transform="matrix(1 0 0 1.00216 3461.88 433.027)"/><path d="M264.123 708.489 263.066 705.059 260.873 696.897 259.792 692.029 258.96 687.154 258.556 682.684 258.759 678.998 259.653 675.771 261.41 671.697 263.735 667.173 266.324 662.578 271.051 654.795 273.165 651.499 162.407 663.706Z" fill="#000000" fill-rule="evenodd" fill-opacity="0.7" transform="matrix(1 0 0 1.00216 3593.24 443)"/><path d="M292.804 636.829 335.464 625.828 389 615.588 442.624 608.878 496.347 605.706 550.156 606.072 604.058 609.975 605.045 610.114" stroke="#FF7F00" stroke-width="10.7478" stroke-miterlimit="3.25" stroke-opacity="0.7" fill="none" transform="matrix(1 0 0 1.00216 3461.88 433.027)"/><path d="M468.148 571.442 469.197 574.864 471.398 583.028 472.479 587.902 473.311 592.769 473.715 597.247 473.512 600.933 472.618 604.151 470.853 608.226 468.528 612.758 465.947 617.345 461.22 625.127 459.106 628.423 569.864 616.225Z" fill="#FF7F00" fill-rule="evenodd" fill-opacity="0.7" transform="matrix(1 0 0 1.00216 3593.24 443)"/><path d="M226.703 589.729 217.746 283.996" stroke="#000000" stroke-width="10.7478" stroke-miterlimit="3.25" stroke-opacity="0.7" fill="none" transform="matrix(1 0 0 1.00216 3461.88 433.027)"/><path d="M58.4039 284.789 61.5759 283.117 69.1873 279.447 73.7744 277.48 78.4004 275.762 82.7232 274.534 86.385 274.045 89.7204 274.323 94.0432 275.303 98.9257 276.742 103.917 278.43 112.446 281.632 116.077 283.101 83.5318 176.525Z" fill="#000000" fill-rule="evenodd" fill-opacity="0.7" transform="matrix(1 0 0 1.00216 3593.24 443)"/><path d="M277.052 99.1589 319.759 88.1265 373.319 77.8562 426.98 71.1311 480.727 67.9356 534.567 68.2855 588.501 72.1728 589.582 72.3205" stroke="#FF7F00" stroke-width="10.7478" stroke-miterlimit="3.25" stroke-opacity="0.7" fill="none" transform="matrix(1 0 0 1.00216 3461.88 433.027)"/><path d="M452.677 33.6412 453.726 37.0699 455.925 45.2335 457.006 50.1004 457.838 54.9674 458.25 59.4456 458.049 63.1309 457.155 66.3573 455.39 70.4313 453.073 74.9563 450.484 79.5512 445.765 87.3336 443.641 90.6302 554.401 78.4004Z" fill="#FF7F00" fill-rule="evenodd" fill-opacity="0.7" transform="matrix(1 0 0 1.00216 3593.24 443)"/><path d="M752.797 172.257 761.591 478.185" stroke="#FF7F00" stroke-width="10.7478" stroke-miterlimit="3.25" stroke-opacity="0.7" fill="none" transform="matrix(1 0 0 1.00216 3461.88 433.027)"/><path d="M658.217 457.504 655.044 459.168 647.425 462.838 642.837 464.804 638.212 466.524 633.881 467.752 630.229 468.234 626.893 467.945 622.562 466.974 617.688 465.529 612.696 463.841 604.167 460.631 600.537 459.16 633.027 565.752Z" fill="#FF7F00" fill-rule="evenodd" fill-opacity="0.7" transform="matrix(1 0 0 1.00216 3593.24 443)"/><path d="M686.734 125.181 644.028 136.213 590.468 146.476 536.814 153.209 483.06 156.397 429.219 156.054 375.287 152.167 374.206 152.019" stroke="#000000" stroke-width="10.7478" stroke-miterlimit="3.25" stroke-opacity="0.7" fill="none" transform="matrix(1 0 0 1.00216 3461.88 433.027)"/><path d="M248.387 170.788 247.339 167.367 245.137 159.203 244.057 154.336 243.225 149.462 242.821 144.991 243.016 141.306 243.909 138.079 245.675 134.005 247.999 129.48 250.579 124.886 255.3 117.095 257.422 113.807 146.663 126.036Z" fill="#000000" fill-rule="evenodd" fill-opacity="0.7" transform="matrix(1 0 0 1.00216 3593.24 443)"/><path d="M833.553 642.901C833.553 660.736 826.469 677.831 813.859 690.442 801.248 703.045 784.151 710.129 766.324 710.129 748.488 710.129 731.393 703.045 718.783 690.442 706.18 677.831 699.096 660.736 699.096 642.901 699.096 625.074 706.18 607.977 718.783 595.366 731.393 582.755 748.488 575.672 766.324 575.672 784.151 575.672 801.248 582.755 813.859 595.366 826.469 607.977 833.553 625.074 833.553 642.901Z" stroke="#000000" stroke-width="1.99033" stroke-linecap="square" stroke-miterlimit="3.25" stroke-opacity="0.7" fill="#A3B3CC" fill-rule="evenodd" transform="matrix(1 0 0 1.00216 3461.88 433.027)"/><path d="M16.3814-42.9165C20.5175-42.9165 23.7518-41.4393 26.0921-38.4849 28.8598-34.9863 30.2515-29.1787 30.2592-21.0772 30.2515-12.9838 28.8521-7.17608 26.061-3.64635 23.7441-0.730826 20.5175 0.72305 16.3814 0.730826 12.2219 0.72305 8.87097-0.87077 6.32086-4.06619 3.77074-7.26161 2.4957-12.9605 2.50346-21.1628 2.4957-29.2097 3.89514-35.0018 6.70183-38.5394 9.01091-41.4548 12.2374-42.9165 16.3814-42.9165ZM16.3814-36.1213C15.3862-36.1136 14.4999-35.8027 13.7302-35.1729 12.9449-34.5354 12.3463-33.4002 11.9264-31.7753 11.3589-29.6528 11.079-26.0843 11.079-21.0772 11.079-16.0548 11.3278-12.6106 11.8331-10.7447 12.3385-8.86319 12.976-7.61923 13.7457-6.99725 14.5076-6.37527 15.3862-6.0643 16.3814-6.0643 17.3688-6.0643 18.2551-6.37527 19.0403-7.01281 19.81-7.63479 20.4087-8.7699 20.8442-10.4104 21.4038-12.5018 21.6914-16.0548 21.6914-21.0772 21.6914-26.0843 21.4349-29.5284 20.9295-31.4098 20.4242-33.276 19.7867-34.5354 19.0248-35.1729 18.2473-35.8027 17.3688-36.1136 16.3814-36.1213Z" transform="matrix(1 0 0 1.00216 4194.99 1098.07)"/><path d="M16.3814-42.9165C20.5175-42.9165 23.7518-41.4393 26.0921-38.4849 28.8598-34.9863 30.2515-29.1787 30.2592-21.0772 30.2515-12.9838 28.8521-7.17608 26.061-3.64635 23.7441-0.730826 20.5175 0.72305 16.3814 0.730826 12.2219 0.72305 8.87097-0.87077 6.32086-4.06619 3.77074-7.26161 2.4957-12.9605 2.50346-21.1628 2.4957-29.2097 3.89514-35.0018 6.70183-38.5394 9.01091-41.4548 12.2374-42.9165 16.3814-42.9165ZM16.3814-36.1213C15.3862-36.1136 14.4999-35.8027 13.7302-35.1729 12.9449-34.5354 12.3463-33.4002 11.9264-31.7753 11.3589-29.6528 11.079-26.0843 11.079-21.0772 11.079-16.0548 11.3278-12.6106 11.8331-10.7447 12.3385-8.86319 12.976-7.61923 13.7457-6.99725 14.5076-6.37527 15.3862-6.0643 16.3814-6.0643 17.3688-6.0643 18.2551-6.37527 19.0403-7.01281 19.81-7.63479 20.4087-8.7699 20.8442-10.4104 21.4038-12.5018 21.6914-16.0548 21.6914-21.0772 21.6914-26.0843 21.4349-29.5284 20.9295-31.4098 20.4242-33.276 19.7867-34.5354 19.0248-35.1729 18.2473-35.8027 17.3688-36.1136 16.3814-36.1213Z" transform="matrix(1 0 0 1.00216 4228.2 1098.07)"/><path d="M295.899 656.927C295.899 674.754 288.815 691.857 276.204 704.468 263.602 717.071 246.499 724.154 228.671 724.154 210.844 724.154 193.739 717.071 181.136 704.468 168.525 691.857 161.442 674.754 161.442 656.927 161.442 639.1 168.525 621.995 181.136 609.392 193.739 596.781 210.844 589.698 228.671 589.698 246.499 589.698 263.602 596.781 276.204 609.392 288.815 621.995 295.899 639.1 295.899 656.927Z" stroke="#000000" stroke-width="1.99033" stroke-linecap="square" stroke-miterlimit="3.25" stroke-opacity="0.7" fill="#A3B3CC" fill-rule="evenodd" transform="matrix(1 0 0 1.00216 3461.88 433.027)"/><path d="M16.3814-42.9165C20.5175-42.9165 23.7518-41.4393 26.0921-38.4849 28.8598-34.9863 30.2515-29.1787 30.2592-21.0772 30.2515-12.9838 28.8521-7.17608 26.061-3.64635 23.7441-0.730826 20.5175 0.72305 16.3814 0.730826 12.2219 0.72305 8.87097-0.87077 6.32086-4.06619 3.77074-7.26161 2.4957-12.9605 2.50346-21.1628 2.4957-29.2097 3.89514-35.0018 6.70183-38.5394 9.01091-41.4548 12.2374-42.9165 16.3814-42.9165ZM16.3814-36.1213C15.3862-36.1136 14.4999-35.8027 13.7302-35.1729 12.9449-34.5354 12.3463-33.4002 11.9264-31.7753 11.3589-29.6528 11.079-26.0843 11.079-21.0772 11.079-16.0548 11.3278-12.6106 11.8331-10.7447 12.3385-8.86319 12.976-7.61923 13.7457-6.99725 14.5076-6.37527 15.3862-6.0643 16.3814-6.0643 17.3688-6.0643 18.2551-6.37527 19.0403-7.01281 19.81-7.63479 20.4087-8.7699 20.8442-10.4104 21.4038-12.5018 21.6914-16.0548 21.6914-21.0772 21.6914-26.0843 21.4349-29.5284 20.9295-31.4098 20.4242-33.276 19.7867-34.5354 19.0248-35.1729 18.2473-35.8027 17.3688-36.1136 16.3814-36.1213Z" transform="matrix(1 0 0 1.00216 3657.34 1112.12)"/><path d="M23.4953 0 15.3085 0 15.3085-30.8734C12.3074-28.0669 8.77768-25.9987 4.71926-24.6614L4.71926-32.1019C6.85731-32.7939 9.18196-34.1155 11.6854-36.0748 14.1889-38.0185 15.9071-40.3042 16.8478-42.9165L23.4953-42.9165Z" transform="matrix(1 0 0 1.00216 3690.55 1112.12)"/><path d="M280.147 119.28C280.147 137.107 273.064 154.212 260.461 166.815 247.85 179.425 230.755 186.508 212.92 186.508 195.091 186.508 177.995 179.425 165.384 166.815 152.773 154.212 145.691 137.107 145.691 119.28 145.691 101.453 152.773 84.3481 165.384 71.7453 177.995 59.1346 195.091 52.0518 212.92 52.0518 230.755 52.0518 247.85 59.1346 260.461 71.7453 273.064 84.3481 280.147 101.453 280.147 119.28Z" stroke="#000000" stroke-width="1.99033" stroke-linecap="square" stroke-miterlimit="3.25" stroke-opacity="0.7" fill="#A3B3CC" fill-rule="evenodd" transform="matrix(1 0 0 1.00216 3461.88 433.027)"/><path d="M23.4953 0 15.3085 0 15.3085-30.8734C12.3074-28.0669 8.77768-25.9987 4.71926-24.6614L4.71926-32.1019C6.85731-32.7939 9.18196-34.1155 11.6854-36.0748 14.1889-38.0185 15.9071-40.3042 16.8478-42.9165L23.4953-42.9165Z" transform="matrix(1 0 0 1.00216 3641.59 573.31)"/><path d="M23.4953 0 15.3085 0 15.3085-30.8734C12.3074-28.0669 8.77768-25.9987 4.71926-24.6614L4.71926-32.1019C6.85731-32.7939 9.18196-34.1155 11.6854-36.0748 14.1889-38.0185 15.9071-40.3042 16.8478-42.9165L23.4953-42.9165Z" transform="matrix(1 0 0 1.00216 3674.8 573.31)"/><path d="M818.096 105.06C818.096 122.887 811.014 139.992 798.404 152.595 785.801 165.205 768.696 172.288 750.869 172.288 733.033 172.288 715.936 165.205 703.326 152.595 690.723 139.992 683.639 122.887 683.639 105.06 683.639 87.2247 690.723 70.1282 703.326 57.5174 715.936 44.9146 733.033 37.8318 750.869 37.8318 768.696 37.8318 785.801 44.9146 798.404 57.5174 811.014 70.1282 818.096 87.2247 818.096 105.06Z" stroke="#000000" stroke-width="1.99033" stroke-linecap="square" stroke-miterlimit="3.25" stroke-opacity="0.7" fill="#A3B3CC" fill-rule="evenodd" transform="matrix(1 0 0 1.00216 3461.88 433.027)"/><path d="M23.4953 0 15.3085 0 15.3085-30.8734C12.3074-28.0669 8.77768-25.9987 4.71926-24.6614L4.71926-32.1019C6.85731-32.7939 9.18196-34.1155 11.6854-36.0748 14.1889-38.0185 15.9071-40.3042 16.8478-42.9165L23.4953-42.9165Z" transform="matrix(1 0 0 1.00216 4179.54 559.057)"/><path d="M16.3814-42.9165C20.5175-42.9165 23.7518-41.4393 26.0921-38.4849 28.8598-34.9863 30.2515-29.1787 30.2592-21.0772 30.2515-12.9838 28.8521-7.17608 26.061-3.64635 23.7441-0.730826 20.5175 0.72305 16.3814 0.730826 12.2219 0.72305 8.87097-0.87077 6.32086-4.06619 3.77074-7.26161 2.4957-12.9605 2.50346-21.1628 2.4957-29.2097 3.89514-35.0018 6.70183-38.5394 9.01091-41.4548 12.2374-42.9165 16.3814-42.9165ZM16.3814-36.1213C15.3862-36.1136 14.4999-35.8027 13.7302-35.1729 12.9449-34.5354 12.3463-33.4002 11.9264-31.7753 11.3589-29.6528 11.079-26.0843 11.079-21.0772 11.079-16.0548 11.3278-12.6106 11.8331-10.7447 12.3385-8.86319 12.976-7.61923 13.7457-6.99725 14.5076-6.37527 15.3862-6.0643 16.3814-6.0643 17.3688-6.0643 18.2551-6.37527 19.0403-7.01281 19.81-7.63479 20.4087-8.7699 20.8442-10.4104 21.4038-12.5018 21.6914-16.0548 21.6914-21.0772 21.6914-26.0843 21.4349-29.5284 20.9295-31.4098 20.4242-33.276 19.7867-34.5354 19.0248-35.1729 18.2473-35.8027 17.3688-36.1136 16.3814-36.1213Z" transform="matrix(1 0 0 1.00216 4212.75 559.057)"/></g></g></g><path d="M2087.57 1396.01 1976 513" stroke="#000000" stroke-width="27.5" stroke-miterlimit="8" fill="none" fill-rule="evenodd"/><text font-family="Arial,Arial_MSFontService,sans-serif" font-weight="400" font-size="92" transform="matrix(1 0 0 1 308.016 1548)">(0,0)</text><text font-family="Arial,Arial_MSFontService,sans-serif" font-weight="400" font-size="92" transform="matrix(1 0 0 1 755.421 1548)">(0,0)</text><text font-family="Arial,Arial_MSFontService,sans-serif" font-weight="400" font-size="92" transform="matrix(1 0 0 1 1225.68 1549)">(0,0)</text><text font-family="Arial,Arial_MSFontService,sans-serif" font-weight="400" font-size="92" transform="matrix(1 0 0 1 1699.27 1546)">(0,0)</text><text font-family="Arial,Arial_MSFontService,sans-serif" font-weight="400" font-size="92" transform="matrix(1 0 0 1 758.147 1709)">(1,0)</text><text font-family="Arial,Arial_MSFontService,sans-serif" font-weight="400" font-size="92" transform="matrix(1 0 0 1 1225.68 1709)">(1,0)</text><text font-family="Arial,Arial_MSFontService,sans-serif" font-weight="400" font-size="92" transform="matrix(1 0 0 1 1699.62 2029)">(1,1)</text><text font-family="Arial,Arial_MSFontService,sans-serif" font-weight="400" font-size="92" transform="matrix(1 0 0 1 2186.27 2029)">(1,1)</text><text font-family="Arial,Arial_MSFontService,sans-serif" font-weight="400" font-size="92" transform="matrix(1 0 0 1 2595.53 2029)">(1,1)</text><text font-family="Arial,Arial_MSFontService,sans-serif" font-weight="400" font-size="92" transform="matrix(1 0 0 1 2182.61 1874)">(0,1)</text><path d="M498 1487.84 744.69 1487.84 744.69 1498.16 498 1498.16ZM716.351 1470.5 754.924 1493 716.351 1515.5C713.891 1516.94 710.734 1516.1 709.299 1513.65 707.864 1511.19 708.695 1508.03 711.155 1506.59L742.092 1488.55 742.092 1497.45 711.155 1479.41C708.695 1477.97 707.864 1474.82 709.299 1472.36 710.734 1469.9 713.891 1469.06 716.351 1470.5Z"/><path d="M938 1487.84 1220.04 1487.84 1220.04 1498.16 938 1498.16ZM1191.7 1470.5 1230.28 1493 1191.7 1515.5C1189.24 1516.94 1186.09 1516.1 1184.65 1513.65 1183.22 1511.19 1184.05 1508.03 1186.51 1506.59L1217.44 1488.55 1217.44 1497.45 1186.51 1479.41C1184.05 1477.97 1183.22 1474.82 1184.65 1472.36 1186.09 1469.9 1189.24 1469.06 1191.7 1470.5Z"/><path d="M1410 1481.84 1700.8 1481.84 1700.8 1492.16 1410 1492.16ZM1672.46 1464.5 1711.03 1487 1672.46 1509.5C1670 1510.94 1666.84 1510.11 1665.41 1507.65 1663.97 1505.19 1664.8 1502.03 1667.26 1500.59L1698.2 1482.55 1698.2 1491.45 1667.26 1473.41C1664.8 1471.97 1663.97 1468.82 1665.41 1466.36 1666.84 1463.9 1670 1463.06 1672.46 1464.5Z"/><path d="M1883 1928.84 2173.8 1928.84 2173.8 1939.16 1883 1939.16ZM2145.46 1911.5 2184.03 1934 2145.46 1956.5C2143 1957.94 2139.84 1957.1 2138.41 1954.65 2136.97 1952.19 2137.8 1949.03 2140.26 1947.59L2171.2 1929.55 2171.2 1938.45 2140.26 1920.41C2137.8 1918.97 2136.97 1915.82 2138.41 1913.36 2139.84 1910.9 2143 1910.06 2145.46 1911.5Z"/><path d="M2381 1987.84 2599.58 1987.84 2599.58 1998.16 2381 1998.16ZM2571.24 1970.5 2609.81 1993 2571.24 2015.5C2568.78 2016.94 2565.62 2016.11 2564.19 2013.65 2562.75 2011.19 2563.58 2008.03 2566.04 2006.59L2596.98 1988.55 2596.98 1997.45 2566.04 1979.41C2563.58 1977.97 2562.75 1974.82 2564.19 1972.36 2565.62 1969.9 2568.78 1969.06 2571.24 1970.5Z"/><path d="M2801 1969.84 3265.35 1969.84 3265.35 1980.16 2801 1980.16ZM3237.01 1952.5 3275.58 1975 3237.01 1997.5C3234.55 1998.94 3231.39 1998.1 3229.96 1995.65 3228.52 1993.19 3229.35 1990.03 3231.81 1988.59L3262.75 1970.55 3262.75 1979.45 3231.81 1961.41C3229.35 1959.97 3228.52 1956.82 3229.96 1954.36 3231.39 1951.9 3234.55 1951.06 3237.01 1952.5Z"/><path d="M513.209 1529.84 746.796 1529.84 746.796 1540.16 513.209 1540.16ZM541.549 1557.5 502.976 1535 541.549 1512.5C544.009 1511.06 547.166 1511.9 548.601 1514.35 550.036 1516.81 549.205 1519.97 546.745 1521.41L515.807 1539.45 515.807 1530.55 546.745 1548.59C549.205 1550.03 550.036 1553.19 548.601 1555.64 547.166 1558.1 544.008 1558.94 541.549 1557.5Z" fill="#FFC000"/><path d="M956.209 1529.84 1227.05 1529.84 1227.05 1540.16 956.209 1540.16ZM984.549 1557.5 945.976 1535 984.549 1512.5C987.009 1511.06 990.166 1511.9 991.601 1514.35 993.036 1516.81 992.205 1519.97 989.745 1521.41L958.807 1539.45 958.807 1530.55 989.745 1548.59C992.205 1550.03 993.036 1553.19 991.601 1555.64 990.166 1558.1 987.009 1558.94 984.549 1557.5Z" fill="#FFC000"/><path d="M1420.21 1528.84 1691.05 1528.84 1691.05 1539.16 1420.21 1539.16ZM1448.55 1556.5 1409.98 1534 1448.55 1511.5C1451.01 1510.06 1454.17 1510.9 1455.6 1513.36 1457.04 1515.82 1456.2 1518.97 1453.75 1520.41L1422.81 1538.45 1422.81 1529.55 1453.75 1547.59C1456.2 1549.03 1457.04 1552.19 1455.6 1554.65 1454.17 1557.1 1451.01 1557.94 1448.55 1556.5Z" fill="#FFC000"/><path d="M1901.21 1982.84 2172.05 1982.84 2172.05 1993.16 1901.21 1993.16ZM1929.55 2010.5 1890.98 1988 1929.55 1965.5C1932.01 1964.06 1935.17 1964.9 1936.6 1967.35 1938.04 1969.81 1937.2 1972.97 1934.74 1974.41L1903.81 1992.45 1903.81 1983.55 1934.74 2001.59C1937.2 2003.03 1938.04 2006.19 1936.6 2008.64 1935.17 2011.1 1932.01 2011.94 1929.55 2010.5Z" fill="#FFC000"/><path d="M2384.21 2023.84 2609.1 2023.84 2609.1 2034.16 2384.21 2034.16ZM2412.55 2051.5 2373.98 2029 2412.55 2006.5C2415.01 2005.06 2418.17 2005.9 2419.6 2008.36 2421.04 2010.82 2420.2 2013.97 2417.74 2015.41L2386.81 2033.45 2386.81 2024.55 2417.74 2042.59C2420.2 2044.03 2421.04 2047.19 2419.6 2049.65 2418.17 2052.1 2415.01 2052.94 2412.55 2051.5Z" fill="#FFC000"/><path d="M2797.21 2013.84 3275.61 2013.84 3275.61 2024.16 2797.21 2024.16ZM2825.55 2041.5 2786.98 2019 2825.55 1996.5C2828.01 1995.06 2831.17 1995.9 2832.6 1998.35 2834.04 2000.81 2833.21 2003.97 2830.75 2005.41L2799.81 2023.45 2799.81 2014.55 2830.75 2032.59C2833.21 2034.03 2834.04 2037.19 2832.6 2039.64 2831.17 2042.1 2828.01 2042.94 2825.55 2041.5Z" fill="#FFC000"/><path d="M518.331 1535.55 757.162 1700.27 751.307 1708.76 512.476 1544.04ZM525.958 1574.41 506.98 1533.99 551.508 1537.36C554.348 1537.58 556.475 1540.06 556.26 1542.9 556.044 1545.73 553.568 1547.86 550.728 1547.65L515.014 1544.94 520.072 1537.61 535.293 1570.03C536.504 1572.6 535.395 1575.67 532.817 1576.89 530.239 1578.1 527.169 1576.99 525.958 1574.41Z" fill="#FFC000"/><path d="M1408 1644.84 1700.17 1644.84 1700.17 1655.16 1408 1655.16ZM1671.83 1627.5 1710.4 1650 1671.83 1672.5C1669.37 1673.94 1666.21 1673.11 1664.77 1670.65 1663.34 1668.19 1664.17 1665.03 1666.63 1663.59L1697.57 1645.55 1697.57 1654.45 1666.63 1636.41C1664.17 1634.97 1663.34 1631.82 1664.77 1629.36 1666.21 1626.9 1669.37 1626.06 1671.83 1627.5Z"/><path d="M1887.21 1860.85 2184.46 1861.08 2184.45 1871.39 1887.21 1871.16ZM1915.53 1888.53 1876.98 1866 1915.57 1843.53C1918.03 1842.1 1921.18 1842.93 1922.62 1845.39 1924.05 1847.85 1923.22 1851.01 1920.76 1852.44L1889.8 1870.46 1889.81 1861.56 1920.73 1879.63C1923.19 1881.06 1924.02 1884.22 1922.58 1886.68 1921.15 1889.14 1917.99 1889.97 1915.53 1888.53Z" fill="#FFC000"/><text font-family="Arial,Arial_MSFontService,sans-serif" font-weight="400" font-size="92" transform="matrix(1 0 0 1 1694.1 1696)">(1,0)</text><text font-family="Arial,Arial_MSFontService,sans-serif" font-weight="400" font-size="92" transform="matrix(1 0 0 1 1696.03 1874)">(0,1)</text><path d="M1418.21 1693.84 1689.05 1693.84 1689.05 1704.16 1418.21 1704.16ZM1446.55 1721.5 1407.98 1699 1446.55 1676.5C1449.01 1675.06 1452.17 1675.9 1453.6 1678.36 1455.04 1680.82 1454.2 1683.97 1451.74 1685.41L1420.81 1703.45 1420.81 1694.55 1451.74 1712.59C1454.2 1714.03 1455.04 1717.19 1453.6 1719.65 1452.17 1722.1 1449.01 1722.94 1446.55 1721.5Z" fill="#FFC000"/><text font-family="Arial,Arial_MSFontService,sans-serif" font-weight="400" font-size="92" transform="matrix(1 0 0 1 2180.45 1686)">(1,0)</text><path d="M1887.21 1685.85 2184.46 1686.08 2184.45 1696.39 1887.21 1696.16ZM1915.53 1713.53 1876.98 1691 1915.57 1668.53C1918.03 1667.1 1921.18 1667.93 1922.62 1670.39 1924.05 1672.85 1923.22 1676.01 1920.76 1677.44L1889.8 1695.46 1889.81 1686.56 1920.73 1704.63C1923.19 1706.06 1924.02 1709.22 1922.58 1711.68 1921.15 1714.14 1917.99 1714.97 1915.53 1713.53Z" fill="#FFC000"/><path d="M1883 1630.84 2173.8 1630.84 2173.8 1641.16 1883 1641.16ZM2145.46 1613.5 2184.03 1636 2145.46 1658.5C2143 1659.94 2139.84 1659.1 2138.41 1656.65 2136.97 1654.19 2137.8 1651.03 2140.26 1649.59L2171.2 1631.55 2171.2 1640.45 2140.26 1622.41C2137.8 1620.97 2136.97 1617.82 2138.41 1615.36 2139.84 1612.9 2143 1612.06 2145.46 1613.5Z"/><path d="M1883 1821.84 2173.8 1821.84 2173.8 1832.16 1883 1832.16ZM2145.46 1804.5 2184.03 1827 2145.46 1849.5C2143 1850.94 2139.84 1850.11 2138.41 1847.65 2136.97 1845.19 2137.8 1842.03 2140.26 1840.59L2171.2 1822.55 2171.2 1831.45 2140.26 1813.41C2137.8 1811.97 2136.97 1808.82 2138.41 1806.36 2139.84 1803.9 2143 1803.06 2145.46 1804.5Z"/><path d="M2360.27 1632.11 2599.07 1984.38 2590.54 1990.17 2351.73 1637.89ZM2597.53 1951.19 2600.55 1995.75 2560.28 1976.44C2557.71 1975.21 2556.63 1972.13 2557.86 1969.57 2559.09 1967 2562.17 1965.91 2564.74 1967.15L2597.03 1982.63 2589.66 1987.63 2587.24 1951.89C2587.05 1949.05 2589.19 1946.59 2592.04 1946.4 2594.88 1946.21 2597.34 1948.35 2597.53 1951.19Z"/><path d="M2781.47 1816.06 3272.37 1962.11 3269.43 1971.99 2778.53 1825.94ZM3250.15 1937.4 3280.7 1969.97 3237.32 1980.54C3234.55 1981.21 3231.76 1979.51 3231.09 1976.75 3230.41 1973.98 3232.11 1971.19 3234.87 1970.52L3269.67 1962.04 3267.13 1970.58 3242.63 1944.46C3240.68 1942.38 3240.78 1939.12 3242.86 1937.17 3244.94 1935.22 3248.2 1935.33 3250.15 1937.4Z"/><path d="M1887.09 1473.8 2171.85 1615.69 2163.67 1632.1 1878.91 1490.2ZM2140.51 1565.62 2184.05 1632.01 2104.83 1637.23C2099.78 1637.56 2095.41 1633.73 2095.08 1628.68 2094.75 1623.63 2098.57 1619.27 2103.62 1618.93L2167.16 1614.75 2160.1 1628.92 2125.18 1575.68C2122.4 1571.44 2123.58 1565.76 2127.82 1562.98 2132.05 1560.21 2137.73 1561.39 2140.51 1565.62Z"/><text font-family="Arial,Arial_MSFontService,sans-serif" font-weight="400" font-size="92" transform="matrix(1 0 0 1 3285.31 2029)">(1,1)</text><g><g><g><path d="M279.849 610.483 322.987 601.904 376.837 594.691 430.584 591.011 484.227 590.853 537.762 594.218 590.394 601.011" stroke="#000000" stroke-width="10.92" stroke-miterlimit="3.25" stroke-opacity="0.7" fill="none" transform="matrix(1 0 0 1.00137 3459.53 1569.87)"/><path d="M452.891 561.498 453.769 565.029 455.538 573.434 456.367 578.435 456.943 583.427 457.109 587.985 456.699 591.712 455.609 594.936 453.603 598.972 450.988 603.435 448.12 607.947 442.891 615.585 440.559 618.816 553.6 612.56Z" fill="#000000" fill-rule="evenodd" fill-opacity="0.7" transform="matrix(1 0 0 1.00137 3593 1580)"/><path d="M685.968 659.348 642.83 667.926 588.972 675.129 535.226 678.812 481.588 678.969 428.056 675.604 375.415 668.818" stroke="#FF7F00" stroke-width="10.92" stroke-miterlimit="3.25" stroke-opacity="0.7" fill="none" transform="matrix(1 0 0 1.00137 3459.53 1569.87)"/><path d="M245.993 688.102 245.116 684.569 243.338 676.164 242.517 671.166 241.941 666.181 241.775 661.615 242.185 657.886 243.267 654.662 245.281 650.634 247.888 646.163 250.764 641.653 255.993 634.013 258.323 630.792 145.284 637.041Z" fill="#FF7F00" fill-rule="evenodd" fill-opacity="0.7" transform="matrix(1 0 0 1.00137 3593 1580)"/><path d="M734.447 578.056 725.891 535.019 718.694 481.226 715.013 427.534 714.856 373.945 718.229 320.468 724.991 268.048" stroke="#000000" stroke-width="10.92" stroke-miterlimit="3.25" stroke-opacity="0.7" fill="none" transform="matrix(1 0 0 1.00137 3459.53 1569.87)"/><path d="M562.123 261.989 565.654 261.103 574.058 259.334 579.059 258.505 584.05 257.928 588.608 257.763 592.337 258.173 595.561 259.255 599.597 261.269 604.06 263.876 608.57 266.751 616.21 271.981 619.439 274.31 613.176 161.264Z" fill="#000000" fill-rule="evenodd" fill-opacity="0.7" transform="matrix(1 0 0 1.00137 3593 1580)"/><path d="M229.563 157.931 220.129 460.909" stroke="#FF7F00" stroke-width="10.92" stroke-miterlimit="3.25" stroke-dasharray="8.08889 8.08889" stroke-opacity="0.7" fill="none" transform="matrix(1 0 0 1.00137 3459.53 1569.87)"/><path d="M115.701 441.619 112.383 443.12 104.437 446.373 99.6656 448.088 94.8629 449.55 90.4075 450.529 86.6634 450.798 83.3061 450.309 78.9694 449.053 74.1112 447.291 69.1505 445.275 60.6982 441.508 57.1041 439.793 83.5825 549.871Z" fill="#FF7F00" fill-rule="evenodd" fill-opacity="0.7" transform="matrix(1 0 0 1.00137 3593 1580)"/><path d="M298.555 93.1013 600.924 102.462" stroke="#000000" stroke-width="10.92" stroke-miterlimit="3.25" stroke-dasharray="8.08889 8.08889" stroke-opacity="0.7" fill="none" transform="matrix(1 0 0 1.00137 3459.53 1569.87)"/><path d="M458.27 63.313 459.77 66.6306 463.026 74.5773 464.739 79.3486 466.201 84.1514 467.188 88.6065 467.457 92.3509 466.968 95.7079 465.712 100.045 463.95 104.903 461.936 109.864 458.167 118.316 456.454 121.91 566.53 95.4157Z" fill="#000000" fill-rule="evenodd" fill-opacity="0.7" transform="matrix(1 0 0 1.00137 3593 1580)"/><path d="M783.304 172.474 791.858 215.508 799.063 269.303 802.735 322.995 802.893 376.584 799.528 430.07 792.758 482.482" stroke="#FF7F00" stroke-width="10.92" stroke-miterlimit="3.25" stroke-opacity="0.7" fill="none" transform="matrix(1 0 0 1.00137 3459.53 1569.87)"/><path d="M688.692 468.327 685.161 469.202 676.757 470.98 671.758 471.803 666.773 472.379 662.207 472.545 658.478 472.134 655.255 471.052 651.226 469.036 646.755 466.43 642.246 463.554 634.606 458.333 631.376 456.003 637.639 569.043Z" fill="#FF7F00" fill-rule="evenodd" fill-opacity="0.7" transform="matrix(1 0 0 1.00137 3593 1580)"/><path d="M281.902 626.889C281.902 644.646 274.856 661.669 262.296 674.221 249.744 686.773 232.721 693.829 214.964 693.829 197.214 693.829 180.183 686.773 167.631 674.221 155.079 661.669 148.025 644.646 148.025 626.889 148.025 609.14 155.079 592.109 167.631 579.557 180.183 567.005 197.214 559.949 214.964 559.949 232.721 559.949 249.744 567.005 262.296 579.557 274.856 592.109 281.902 609.14 281.902 626.889Z" stroke="#000000" stroke-width="2.02222" stroke-linecap="square" stroke-miterlimit="3.25" stroke-opacity="0.7" fill="#A3B3CC" fill-rule="evenodd" transform="matrix(1 0 0 1.00137 3459.53 1569.87)"/><path d="M16.6438-43.6042C20.8463-43.6042 24.1324-42.1033 26.5101-39.1015 29.3222-35.5468 30.7362-29.6462 30.7441-21.4149 30.7362-13.1918 29.3143-7.29106 26.4786-3.70477 24.1245-0.742536 20.8463 0.734635 16.6438 0.742536 12.4177 0.734635 9.01311-0.884722 6.42213-4.13134 3.83116-7.37796 2.53568-13.1681 2.54357-21.5019 2.53568-29.6777 3.95755-35.5626 6.80921-39.1569 9.15529-42.1191 12.4335-43.6042 16.6438-43.6042ZM16.6438-36.7001C15.6327-36.6922 14.7322-36.3763 13.9502-35.7365 13.1524-35.0888 12.5441-33.9353 12.1175-32.2844 11.5409-30.1279 11.2565-26.5022 11.2565-21.4149 11.2565-16.3121 11.5093-12.8127 12.0227-10.9168 12.5362-9.0052 13.1839-7.74131 13.966-7.10937 14.7401-6.47742 15.6327-6.16147 16.6438-6.16147 17.647-6.16147 18.5476-6.47742 19.3454-7.12518 20.1274-7.75712 20.7357-8.91042 21.1781-10.5772 21.7468-12.7021 22.039-16.3121 22.039-21.4149 22.039-26.5022 21.7783-30.0015 21.2649-31.9131 20.7514-33.8091 20.1037-35.0888 19.3296-35.7365 18.5397-36.3763 17.647-36.6922 16.6438-36.7001Z" transform="matrix(1 0 0 1.00137 3640.76 2218.69)"/><path d="M16.6438-43.6042C20.8463-43.6042 24.1324-42.1033 26.5101-39.1015 29.3222-35.5468 30.7362-29.6462 30.7441-21.4149 30.7362-13.1918 29.3143-7.29106 26.4786-3.70477 24.1245-0.742536 20.8463 0.734635 16.6438 0.742536 12.4177 0.734635 9.01311-0.884722 6.42213-4.13134 3.83116-7.37796 2.53568-13.1681 2.54357-21.5019 2.53568-29.6777 3.95755-35.5626 6.80921-39.1569 9.15529-42.1191 12.4335-43.6042 16.6438-43.6042ZM16.6438-36.7001C15.6327-36.6922 14.7322-36.3763 13.9502-35.7365 13.1524-35.0888 12.5441-33.9353 12.1175-32.2844 11.5409-30.1279 11.2565-26.5022 11.2565-21.4149 11.2565-16.3121 11.5093-12.8127 12.0227-10.9168 12.5362-9.0052 13.1839-7.74131 13.966-7.10937 14.7401-6.47742 15.6327-6.16147 16.6438-6.16147 17.647-6.16147 18.5476-6.47742 19.3454-7.12518 20.1274-7.75712 20.7357-8.91042 21.1781-10.5772 21.7468-12.7021 22.039-16.3121 22.039-21.4149 22.039-26.5022 21.7783-30.0015 21.2649-31.9131 20.7514-33.8091 20.1037-35.0888 19.3296-35.7365 18.5397-36.3763 17.647-36.6922 16.6438-36.7001Z" transform="matrix(1 0 0 1.00137 3674.5 2218.69)"/><path d="M817.791 642.933C817.791 660.69 810.737 677.714 798.185 690.265 785.625 702.825 768.602 709.871 750.845 709.871 733.096 709.871 716.073 702.825 703.513 690.265 690.961 677.714 683.906 660.69 683.906 642.933 683.906 625.182 690.961 608.151 703.513 595.599 716.073 583.047 733.096 575.994 750.845 575.994 768.602 575.994 785.625 583.047 798.185 595.599 810.737 608.151 817.791 625.182 817.791 642.933Z" stroke="#000000" stroke-width="2.02222" stroke-linecap="square" stroke-miterlimit="3.25" stroke-opacity="0.7" fill="#A3B3CC" fill-rule="evenodd" transform="matrix(1 0 0 1.00137 3459.53 1569.87)"/><path d="M23.8717 0 15.5537 0 15.5537-31.3681C12.5046-28.5166 8.91833-26.4153 4.79487-25.0566L4.79487-32.6162C6.96718-33.3194 9.32908-34.6621 11.8727-36.6528 14.4162-38.6277 16.162-40.95 17.1178-43.6042L23.8717-43.6042Z" transform="matrix(1 0 0 1.00137 4176.64 2234.75)"/><path d="M16.6438-43.6042C20.8463-43.6042 24.1324-42.1033 26.5101-39.1015 29.3222-35.5468 30.7362-29.6462 30.7441-21.4149 30.7362-13.1918 29.3143-7.29106 26.4786-3.70477 24.1245-0.742536 20.8463 0.734635 16.6438 0.742536 12.4177 0.734635 9.01311-0.884722 6.42213-4.13134 3.83116-7.37796 2.53568-13.1681 2.54357-21.5019 2.53568-29.6777 3.95755-35.5626 6.80921-39.1569 9.15529-42.1191 12.4335-43.6042 16.6438-43.6042ZM16.6438-36.7001C15.6327-36.6922 14.7322-36.3763 13.9502-35.7365 13.1524-35.0888 12.5441-33.9353 12.1175-32.2844 11.5409-30.1279 11.2565-26.5022 11.2565-21.4149 11.2565-16.3121 11.5093-12.8127 12.0227-10.9168 12.5362-9.0052 13.1839-7.74131 13.966-7.10937 14.7401-6.47742 15.6327-6.16147 16.6438-6.16147 17.647-6.16147 18.5476-6.47742 19.3454-7.12518 20.1274-7.75712 20.7357-8.91042 21.1781-10.5772 21.7468-12.7021 22.039-16.3121 22.039-21.4149 22.039-26.5022 21.7783-30.0015 21.2649-31.9131 20.7514-33.8091 20.1037-35.0888 19.3296-35.7365 18.5397-36.3763 17.647-36.6922 16.6438-36.7001Z" transform="matrix(1 0 0 1.00137 4210.38 2234.75)"/><path d="M298.585 91.0316C298.585 108.781 291.532 125.804 278.98 138.364 266.428 150.916 249.397 157.97 231.648 157.97 213.89 157.97 196.867 150.916 184.314 138.364 171.755 125.804 164.708 108.781 164.708 91.0316 164.708 73.274 171.755 56.2509 184.314 43.6911 196.867 31.139 213.89 24.0851 231.648 24.0851 249.397 24.0851 266.428 31.139 278.98 43.6911 291.532 56.2509 298.585 73.274 298.585 91.0316Z" stroke="#000000" stroke-width="2.02222" stroke-linecap="square" stroke-miterlimit="3.25" stroke-opacity="0.7" fill="#A3B3CC" fill-rule="evenodd" transform="matrix(1 0 0 1.00137 3459.53 1569.87)"/><path d="M16.6438-43.6042C20.8463-43.6042 24.1324-42.1033 26.5101-39.1015 29.3222-35.5468 30.7362-29.6462 30.7441-21.4149 30.7362-13.1918 29.3143-7.29106 26.4786-3.70477 24.1245-0.742536 20.8463 0.734635 16.6438 0.742536 12.4177 0.734635 9.01311-0.884722 6.42213-4.13134 3.83116-7.37796 2.53568-13.1681 2.54357-21.5019 2.53568-29.6777 3.95755-35.5626 6.80921-39.1569 9.15529-42.1191 12.4335-43.6042 16.6438-43.6042ZM16.6438-36.7001C15.6327-36.6922 14.7322-36.3763 13.9502-35.7365 13.1524-35.0888 12.5441-33.9353 12.1175-32.2844 11.5409-30.1279 11.2565-26.5022 11.2565-21.4149 11.2565-16.3121 11.5093-12.8127 12.0227-10.9168 12.5362-9.0052 13.1839-7.74131 13.966-7.10937 14.7401-6.47742 15.6327-6.16147 16.6438-6.16147 17.647-6.16147 18.5476-6.47742 19.3454-7.12518 20.1274-7.75712 20.7357-8.91042 21.1781-10.5772 21.7468-12.7021 22.039-16.3121 22.039-21.4149 22.039-26.5022 21.7783-30.0015 21.2649-31.9131 20.7514-33.8091 20.1037-35.0888 19.3296-35.7365 18.5397-36.3763 17.647-36.6922 16.6438-36.7001Z" transform="matrix(1 0 0 1.00137 3657.44 1682.09)"/><path d="M23.8717 0 15.5537 0 15.5537-31.3681C12.5046-28.5166 8.91833-26.4153 4.79487-25.0566L4.79487-32.6162C6.96718-33.3194 9.32908-34.6621 11.8727-36.6528 14.4162-38.6277 16.162-40.95 17.1178-43.6042L23.8717-43.6042Z" transform="matrix(1 0 0 1.00137 3691.18 1682.09)"/><path d="M833.843 107.596C833.843 125.346 826.79 142.377 814.238 154.929 801.686 167.481 784.655 174.535 766.904 174.535 749.146 174.535 732.123 167.481 719.571 154.929 707.011 142.377 699.966 125.346 699.966 107.596 699.966 89.8389 707.011 72.8158 719.571 60.2639 732.123 47.7119 749.146 40.6578 766.904 40.6578 784.655 40.6578 801.686 47.7119 814.238 60.2639 826.79 72.8158 833.843 89.8389 833.843 107.596Z" stroke="#000000" stroke-width="2.02222" stroke-linecap="square" stroke-miterlimit="3.25" stroke-opacity="0.7" fill="#A3B3CC" fill-rule="evenodd" transform="matrix(1 0 0 1.00137 3459.53 1569.87)"/><path d="M23.8717 0 15.5537 0 15.5537-31.3681C12.5046-28.5166 8.91833-26.4153 4.79487-25.0566L4.79487-32.6162C6.96718-33.3194 9.32908-34.6621 11.8727-36.6528 14.4162-38.6277 16.162-40.95 17.1178-43.6042L23.8717-43.6042Z" transform="matrix(1 0 0 1.00137 4192.7 1698.68)"/><path d="M23.8717 0 15.5537 0 15.5537-31.3681C12.5046-28.5166 8.91833-26.4153 4.79487-25.0566L4.79487-32.6162C6.96718-33.3194 9.32908-34.6621 11.8727-36.6528 14.4162-38.6277 16.162-40.95 17.1178-43.6042L23.8717-43.6042Z" transform="matrix(1 0 0 1.00137 4226.43 1698.68)"/></g></g></g><text font-family="Arial,Arial_MSFontService,sans-serif" font-weight="400" font-size="64" transform="matrix(1 0 0 1 3594.06 1470)">Here, (0,1) is a Garden of </text><text font-family="Arial,Arial_MSFontService,sans-serif" font-weight="400" font-size="64" transform="matrix(1 0 0 1 3594.06 1547)">Eden state</text><text font-family="Arial,Arial_MSFontService,sans-serif" font-weight="400" font-size="92" transform="matrix(1 0 0 1 1225.41 1875)">(0,1)</text><path d="M942 1656.84 1224.04 1656.84 1224.04 1667.16 942 1667.16ZM1195.7 1639.5 1234.27 1662 1195.7 1684.5C1193.24 1685.94 1190.08 1685.11 1188.65 1682.65 1187.22 1680.19 1188.05 1677.03 1190.51 1675.59L1221.44 1657.55 1221.44 1666.45 1190.51 1648.41C1188.05 1646.97 1187.22 1643.82 1188.65 1641.36 1190.09 1638.9 1193.24 1638.06 1195.7 1639.5Z"/><path d="M960.209 1698.84 1231.05 1698.84 1231.05 1709.16 960.209 1709.16ZM988.549 1726.5 949.976 1704 988.549 1681.5C991.009 1680.06 994.166 1680.9 995.601 1683.36 997.036 1685.81 996.205 1688.97 993.745 1690.41L962.808 1708.45 962.808 1699.55 993.745 1717.59C996.205 1719.03 997.036 1722.19 995.601 1724.65 994.166 1727.1 991.009 1727.94 988.549 1726.5Z" fill="#FFC000"/><path d="M1410 1820.84 1702.17 1820.84 1702.17 1831.16 1410 1831.16ZM1673.83 1803.5 1712.4 1826 1673.83 1848.5C1671.37 1849.94 1668.21 1849.11 1666.77 1846.65 1665.34 1844.19 1666.17 1841.03 1668.63 1839.59L1699.57 1821.55 1699.57 1830.45 1668.63 1812.41C1666.17 1810.97 1665.34 1807.82 1666.77 1805.36 1668.21 1802.9 1671.37 1802.06 1673.83 1803.5Z"/><path d="M1420.21 1869.84 1691.05 1869.84 1691.05 1880.16 1420.21 1880.16ZM1448.55 1897.5 1409.98 1875 1448.55 1852.5C1451.01 1851.06 1454.17 1851.9 1455.6 1854.36 1457.04 1856.82 1456.2 1859.97 1453.75 1861.41L1422.81 1879.45 1422.81 1870.55 1453.75 1888.59C1456.2 1890.03 1457.04 1893.19 1455.6 1895.65 1454.17 1898.1 1451.01 1898.94 1448.55 1897.5Z" fill="#FFC000"/><path d="M0.0472519-5.15603 216.903-3.16869 216.808 7.14338-0.0472519 5.15603ZM188.723-20.7721 227.088 2.08112 188.311 24.2274C185.838 25.6397 182.689 24.78 181.276 22.3071 179.864 19.8343 180.724 16.6848 183.197 15.2725L214.298-2.49014 214.217 6.41721 183.446-11.9124C180.999-13.3698 180.197-16.5345 181.655-18.9811 183.112-21.4276 186.277-22.2295 188.723-20.7721Z" transform="matrix(1 0 0 -1 2378 1826.08)"/><path d="M2391.21 1871.84 2604.68 1871.84 2604.68 1882.16 2391.21 1882.16ZM2419.55 1899.5 2380.98 1877 2419.55 1854.5C2422.01 1853.06 2425.17 1853.9 2426.6 1856.35 2428.04 1858.81 2427.21 1861.97 2424.75 1863.41L2393.81 1881.45 2393.81 1872.55 2424.75 1890.59C2427.21 1892.03 2428.04 1895.19 2426.6 1897.64 2425.17 1900.1 2422.01 1900.94 2419.55 1899.5Z" fill="#FFC000"/><text font-family="Arial,Arial_MSFontService,sans-serif" font-weight="400" font-size="92" transform="matrix(1 0 0 1 2595.53 1874)">(0,1)</text><path d="M1420.56 1680.4 1714.92 2023.81 1707.09 2030.52 1412.73 1687.11ZM1418 1719.91 1409.98 1675.98 1452.17 1690.62C1454.86 1691.56 1456.29 1694.5 1455.35 1697.19 1454.42 1699.88 1451.48 1701.3 1448.79 1700.37L1414.95 1688.62 1421.72 1682.83 1428.15 1718.06C1428.66 1720.86 1426.8 1723.55 1424 1724.06 1421.2 1724.57 1418.52 1722.71 1418 1719.91Z" fill="#FFC000"/><path d="M961.565 1546.37 1234.83 1863.99 1227.02 1870.72 953.748 1553.1ZM959.085 1585.9 950.985 1541.98 993.198 1556.55C995.89 1557.48 997.32 1560.41 996.391 1563.1 995.462 1565.79 992.527 1567.22 989.835 1566.3L955.977 1554.61 962.729 1548.8 969.227 1584.03C969.743 1586.83 967.892 1589.52 965.091 1590.03 962.291 1590.55 959.602 1588.7 959.085 1585.9Z" fill="#FFC000"/><text font-family="Arial,Arial_MSFontService,sans-serif" font-weight="400" font-size="92" transform="matrix(1 0 0 1 321.149 811)">(0,0)</text><text font-family="Arial,Arial_MSFontService,sans-serif" font-weight="400" font-size="92" transform="matrix(1 0 0 1 768.554 811)">(0,0)</text><text font-family="Arial,Arial_MSFontService,sans-serif" font-weight="400" font-size="92" transform="matrix(1 0 0 1 1238.81 812)">(0,0)</text><text font-family="Arial,Arial_MSFontService,sans-serif" font-weight="400" font-size="92" transform="matrix(1 0 0 1 1712.4 809)">(0,0)</text><text font-family="Arial,Arial_MSFontService,sans-serif" font-weight="400" font-size="92" transform="matrix(1 0 0 1 771.281 972)">(1,0)</text><text font-family="Arial,Arial_MSFontService,sans-serif" font-weight="400" font-size="92" transform="matrix(1 0 0 1 1238.81 972)">(1,0)</text><text font-family="Arial,Arial_MSFontService,sans-serif" font-weight="400" font-size="92" transform="matrix(1 0 0 1 1712.75 1292)">(1,1)</text><text font-family="Arial,Arial_MSFontService,sans-serif" font-weight="400" font-size="92" transform="matrix(1 0 0 1 2199.41 1292)">(1,1)</text><text font-family="Arial,Arial_MSFontService,sans-serif" font-weight="400" font-size="92" transform="matrix(1 0 0 1 2608.66 1292)">(1,1)</text><text font-family="Arial,Arial_MSFontService,sans-serif" font-weight="400" font-size="92" transform="matrix(1 0 0 1 2195.74 1137)">(0,1)</text><path d="M511 749.844 757.69 749.844 757.69 760.156 511 760.156ZM729.351 732.499 767.924 755 729.351 777.501C726.891 778.936 723.734 778.105 722.299 775.645 720.864 773.185 721.695 770.028 724.155 768.593L755.093 750.546 755.093 759.454 724.155 741.407C721.695 739.972 720.864 736.815 722.299 734.355 723.734 731.895 726.891 731.065 729.351 732.499Z"/><path d="M951 749.844 1233.04 749.844 1233.04 760.156 951 760.156ZM1204.7 732.499 1243.28 755 1204.7 777.501C1202.24 778.936 1199.09 778.105 1197.65 775.645 1196.22 773.185 1197.05 770.028 1199.51 768.593L1230.44 750.546 1230.44 759.454 1199.51 741.407C1197.05 739.972 1196.22 736.815 1197.65 734.355 1199.09 731.895 1202.24 731.065 1204.7 732.499Z"/><path d="M1423 744.844 1713.8 744.844 1713.8 755.157 1423 755.156ZM1685.46 727.5 1724.03 750 1685.46 772.501C1683 773.936 1679.84 773.105 1678.41 770.645 1676.97 768.186 1677.8 765.028 1680.26 763.593L1711.2 745.547 1711.2 754.454 1680.26 736.407C1677.8 734.972 1676.97 731.815 1678.41 729.355 1679.84 726.896 1683 726.065 1685.46 727.5Z"/><path d="M1896 1191.84 2186.8 1191.84 2186.8 1202.16 1896 1202.16ZM2158.46 1174.5 2197.03 1197 2158.46 1219.5C2156 1220.94 2152.84 1220.1 2151.41 1217.65 2149.97 1215.19 2150.8 1212.03 2153.26 1210.59L2184.2 1192.55 2184.2 1201.45 2153.26 1183.41C2150.8 1181.97 2149.97 1178.82 2151.41 1176.36 2152.84 1173.9 2156 1173.06 2158.46 1174.5Z"/><path d="M2394 1250.84 2612.58 1250.84 2612.58 1261.16 2394 1261.16ZM2584.24 1233.5 2622.81 1256 2584.24 1278.5C2581.78 1279.94 2578.62 1279.11 2577.18 1276.65 2575.75 1274.19 2576.58 1271.03 2579.04 1269.59L2609.98 1251.55 2609.98 1260.45 2579.04 1242.41C2576.58 1240.97 2575.75 1237.82 2577.19 1235.36 2578.62 1232.9 2581.78 1232.06 2584.24 1233.5Z"/><path d="M2815 1231.84 3279.35 1231.84 3279.35 1242.16 2815 1242.16ZM3251.01 1214.5 3289.58 1237 3251.01 1259.5C3248.55 1260.94 3245.39 1260.11 3243.96 1257.65 3242.52 1255.19 3243.35 1252.03 3245.81 1250.59L3276.75 1232.55 3276.75 1241.45 3245.81 1223.41C3243.35 1221.97 3242.52 1218.82 3243.96 1216.36 3245.39 1213.9 3248.55 1213.06 3251.01 1214.5Z"/><path d="M526.209 792.844 759.796 792.844 759.796 803.156 526.209 803.156ZM554.549 820.501 515.976 798 554.549 775.499C557.009 774.064 560.166 774.895 561.601 777.355 563.036 779.815 562.205 782.972 559.745 784.407L528.807 802.454 528.807 793.546 559.745 811.593C562.205 813.028 563.036 816.185 561.601 818.645 560.166 821.105 557.008 821.935 554.549 820.501Z" fill="#FFC000"/><path d="M969.209 792.844 1240.05 792.844 1240.05 803.156 969.209 803.156ZM997.549 820.501 958.976 798 997.549 775.499C1000.01 774.064 1003.17 774.895 1004.6 777.355 1006.04 779.815 1005.2 782.972 1002.75 784.407L971.807 802.454 971.808 793.546 1002.74 811.593C1005.2 813.028 1006.04 816.185 1004.6 818.645 1003.17 821.105 1000.01 821.935 997.549 820.501Z" fill="#FFC000"/><path d="M1433.21 790.844 1704.05 790.844 1704.05 801.157 1433.21 801.156ZM1461.55 818.501 1422.98 796 1461.55 773.499C1464.01 772.065 1467.17 772.895 1468.6 775.355 1470.04 777.815 1469.2 780.972 1466.75 782.407L1435.81 800.454 1435.81 791.546 1466.75 809.593C1469.2 811.028 1470.04 814.185 1468.6 816.645 1467.17 819.105 1464.01 819.936 1461.55 818.501Z" fill="#FFC000"/><path d="M1914.21 1245.84 2185.05 1245.84 2185.05 1256.16 1914.21 1256.16ZM1942.55 1273.5 1903.98 1251 1942.55 1228.5C1945.01 1227.06 1948.17 1227.9 1949.6 1230.35 1951.04 1232.81 1950.2 1235.97 1947.74 1237.41L1916.81 1255.45 1916.81 1246.55 1947.74 1264.59C1950.2 1266.03 1951.04 1269.19 1949.6 1271.64 1948.17 1274.1 1945.01 1274.94 1942.55 1273.5Z" fill="#FFC000"/><path d="M2397.21 1285.84 2622.1 1285.84 2622.1 1296.16 2397.21 1296.16ZM2425.55 1313.5 2386.98 1291 2425.55 1268.5C2428.01 1267.06 2431.17 1267.9 2432.6 1270.36 2434.04 1272.82 2433.2 1275.97 2430.74 1277.41L2399.81 1295.45 2399.81 1286.55 2430.74 1304.59C2433.2 1306.03 2434.04 1309.19 2432.6 1311.65 2431.17 1314.1 2428.01 1314.94 2425.55 1313.5Z" fill="#FFC000"/><path d="M2811.21 1275.84 3289.6 1275.84 3289.6 1286.16 2811.21 1286.16ZM2839.55 1303.5 2800.98 1281 2839.55 1258.5C2842.01 1257.06 2845.17 1257.9 2846.6 1260.36 2848.04 1262.81 2847.2 1265.97 2844.74 1267.41L2813.81 1285.45 2813.81 1276.55 2844.74 1294.59C2847.2 1296.03 2848.04 1299.19 2846.6 1301.65 2845.17 1304.1 2842.01 1304.94 2839.55 1303.5Z" fill="#FFC000"/><path d="M532.331 797.551 771.162 962.271 765.307 970.76 526.476 806.041ZM539.959 836.409 520.98 795.987 565.508 799.364C568.348 799.579 570.475 802.056 570.26 804.895 570.044 807.735 567.568 809.862 564.728 809.647L529.015 806.938 534.072 799.605 549.293 832.026C550.504 834.604 549.395 837.675 546.817 838.885 544.24 840.095 541.169 838.987 539.959 836.409Z" fill="#FFC000"/><path d="M1421 907.844 1713.17 907.844 1713.17 918.157 1421 918.156ZM1684.83 890.5 1723.4 913 1684.83 935.501C1682.37 936.936 1679.21 936.105 1677.77 933.645 1676.34 931.185 1677.17 928.028 1679.63 926.593L1710.57 908.547 1710.57 917.454 1679.63 899.407C1677.17 897.972 1676.34 894.815 1677.77 892.355 1679.21 889.896 1682.37 889.065 1684.83 890.5Z"/><path d="M1900.21 1123.85 2197.46 1124.08 2197.45 1134.39 1900.21 1134.16ZM1928.53 1151.53 1889.98 1129 1928.57 1106.53C1931.03 1105.1 1934.18 1105.93 1935.62 1108.39 1937.05 1110.85 1936.22 1114.01 1933.76 1115.44L1902.8 1133.46 1902.81 1124.56 1933.73 1142.63C1936.19 1144.06 1937.02 1147.22 1935.58 1149.68 1934.15 1152.14 1930.99 1152.97 1928.53 1151.53Z" fill="#FFC000"/><text font-family="Arial,Arial_MSFontService,sans-serif" font-weight="400" font-size="92" transform="matrix(1 0 0 1 1707.23 958)">(1,0)</text><text font-family="Arial,Arial_MSFontService,sans-serif" font-weight="400" font-size="92" transform="matrix(1 0 0 1 1709.16 1137)">(0,1)</text><path d="M1431.21 956.844 1702.05 956.844 1702.05 967.157 1431.21 967.156ZM1459.55 984.501 1420.98 962 1459.55 939.5C1462.01 938.065 1465.17 938.896 1466.6 941.355 1468.04 943.815 1467.2 946.972 1464.75 948.407L1433.81 966.454 1433.81 957.546 1464.75 975.593C1467.2 977.028 1468.04 980.185 1466.6 982.645 1465.17 985.105 1462.01 985.936 1459.55 984.501Z" fill="#FFC000"/><text font-family="Arial,Arial_MSFontService,sans-serif" font-weight="400" font-size="92" transform="matrix(1 0 0 1 2193.59 949)">(1,0)</text><path d="M1900.21 947.851 2197.46 948.078 2197.45 958.39 1900.21 958.164ZM1928.53 975.53 1889.98 953 1928.57 930.529C1931.03 929.096 1934.18 929.929 1935.62 932.39 1937.05 934.851 1936.22 938.007 1933.76 939.44L1902.8 957.464 1902.81 948.556 1933.73 966.626C1936.19 968.063 1937.02 971.221 1935.58 973.68 1934.15 976.138 1930.99 976.967 1928.53 975.53Z" fill="#FFC000"/><path d="M1896 893.844 2186.8 893.844 2186.8 904.156 1896 904.156ZM2158.46 876.499 2197.03 899 2158.46 921.501C2156 922.936 2152.84 922.105 2151.41 919.645 2149.97 917.185 2150.8 914.028 2153.26 912.593L2184.2 894.546 2184.2 903.454 2153.26 885.407C2150.8 883.972 2149.97 880.815 2151.41 878.355 2152.84 875.895 2156 875.065 2158.46 876.499Z"/><path d="M1896 1084.84 2186.8 1084.84 2186.8 1095.16 1896 1095.16ZM2158.46 1067.5 2197.03 1090 2158.46 1112.5C2156 1113.94 2152.84 1113.11 2151.41 1110.65 2149.97 1108.19 2150.8 1105.03 2153.26 1103.59L2184.2 1085.55 2184.2 1094.45 2153.26 1076.41C2150.8 1074.97 2149.97 1071.82 2151.41 1069.36 2152.84 1066.9 2156 1066.06 2158.46 1067.5Z"/><path d="M2373.27 895.107 2612.07 1247.38 2603.54 1253.17 2364.73 900.893ZM2610.53 1214.19 2613.55 1258.75 2573.28 1239.44C2570.71 1238.21 2569.63 1235.13 2570.86 1232.57 2572.09 1230 2575.17 1228.91 2577.74 1230.15L2610.03 1245.63 2602.66 1250.63 2600.24 1214.89C2600.05 1212.05 2602.19 1209.59 2605.04 1209.4 2607.88 1209.21 2610.34 1211.35 2610.53 1214.19Z"/><path d="M2794.47 1079.06 3285.37 1225.11 3282.43 1234.99 2791.53 1088.94ZM3263.15 1200.4 3293.7 1232.97 3250.32 1243.54C3247.55 1244.21 3244.76 1242.51 3244.09 1239.75 3243.41 1236.98 3245.11 1234.19 3247.87 1233.52L3282.67 1225.04 3280.13 1233.58 3255.63 1207.46C3253.68 1205.38 3253.78 1202.12 3255.86 1200.17 3257.94 1198.22 3261.2 1198.33 3263.15 1200.4Z"/><path d="M1902.88 737.941 2202.15 1077.67 2188.39 1089.79 1889.12 750.059ZM2191.98 1019.48 2207.29 1097.38 2131.95 1072.36C2127.14 1070.77 2124.54 1065.58 2126.14 1060.78 2127.73 1055.97 2132.92 1053.37 2137.73 1054.96L2198.16 1075.03 2186.27 1085.5 2173.99 1023.02C2173.02 1018.05 2176.25 1013.23 2181.22 1012.25 2186.19 1011.28 2191 1014.51 2191.98 1019.48Z"/><text font-family="Arial,Arial_MSFontService,sans-serif" font-weight="400" font-size="92" transform="matrix(1 0 0 1 1238.54 1138)">(0,1)</text><path d="M955 918.844 1237.04 918.844 1237.04 929.157 955 929.156ZM1208.7 901.5 1247.27 924 1208.7 946.501C1206.24 947.936 1203.09 947.105 1201.65 944.645 1200.22 942.185 1201.05 939.028 1203.51 937.593L1234.44 919.547 1234.44 928.454 1203.51 910.407C1201.05 908.972 1200.22 905.815 1201.65 903.355 1203.09 900.896 1206.24 900.065 1208.7 901.5Z"/><path d="M973.209 961.844 1244.05 961.844 1244.05 972.157 973.209 972.156ZM1001.55 989.501 962.976 967 1001.55 944.499C1004.01 943.064 1007.17 943.895 1008.6 946.355 1010.04 948.815 1009.2 951.972 1006.74 953.407L975.807 971.454 975.807 962.546 1006.74 980.593C1009.2 982.028 1010.04 985.185 1008.6 987.645 1007.17 990.105 1004.01 990.936 1001.55 989.501Z" fill="#FFC000"/><path d="M1423 1083.84 1715.17 1083.84 1715.17 1094.16 1423 1094.16ZM1686.83 1066.5 1725.4 1089 1686.83 1111.5C1684.37 1112.94 1681.21 1112.11 1679.77 1109.65 1678.34 1107.19 1679.17 1104.03 1681.63 1102.59L1712.57 1084.55 1712.57 1093.45 1681.63 1075.41C1679.17 1073.97 1678.34 1070.82 1679.77 1068.36 1681.21 1065.9 1684.37 1065.06 1686.83 1066.5Z"/><path d="M1433.21 1132.84 1704.05 1132.84 1704.05 1143.16 1433.21 1143.16ZM1461.55 1160.5 1422.98 1138 1461.55 1115.5C1464.01 1114.06 1467.17 1114.9 1468.6 1117.36 1470.04 1119.82 1469.2 1122.97 1466.75 1124.41L1435.81 1142.45 1435.81 1133.55 1466.75 1151.59C1469.2 1153.03 1470.04 1156.19 1468.6 1158.65 1467.17 1161.1 1464.01 1161.94 1461.55 1160.5Z" fill="#FFC000"/><path d="M0.0472519-5.15603 216.903-3.16869 216.808 7.14338-0.0472519 5.15603ZM188.723-20.7721 227.088 2.08112 188.311 24.2274C185.838 25.6397 182.689 24.78 181.276 22.3071 179.864 19.8343 180.724 16.6848 183.197 15.2725L214.298-2.49014 214.217 6.41721 183.446-11.9124C180.999-13.3698 180.197-16.5345 181.655-18.9811 183.112-21.4276 186.277-22.2295 188.723-20.7721Z" transform="matrix(1 0 0 -1 2391 1089.08)"/><path d="M2404.21 1133.84 2617.68 1133.84 2617.68 1144.16 2404.21 1144.16ZM2432.55 1161.5 2393.98 1139 2432.55 1116.5C2435.01 1115.06 2438.17 1115.9 2439.6 1118.35 2441.04 1120.81 2440.2 1123.97 2437.74 1125.41L2406.81 1143.45 2406.81 1134.55 2437.74 1152.59C2440.2 1154.03 2441.04 1157.19 2439.6 1159.64 2438.17 1162.1 2435.01 1162.94 2432.55 1161.5Z" fill="#FFC000"/><text font-family="Arial,Arial_MSFontService,sans-serif" font-weight="400" font-size="92" transform="matrix(1 0 0 1 2608.66 1137)">(0,1)</text><path d="M1433.56 943.396 1727.92 1286.81 1720.09 1293.52 1425.73 950.107ZM1431 982.912 1422.98 938.982 1465.17 953.625C1467.86 954.559 1469.29 957.496 1468.35 960.187 1467.42 962.877 1464.48 964.301 1461.79 963.367L1427.95 951.623 1434.72 945.826 1441.15 981.06C1441.66 983.861 1439.8 986.547 1437 987.058 1434.2 987.57 1431.52 985.713 1431 982.912Z" fill="#FFC000"/><path d="M974.565 808.374 1247.83 1125.99 1240.02 1132.72 966.748 815.1ZM972.085 847.897 963.984 803.982 1006.2 818.547C1008.89 819.476 1010.32 822.411 1009.39 825.103 1008.46 827.795 1005.53 829.224 1002.83 828.295L968.977 816.614 975.729 810.804 982.226 846.026C982.743 848.827 980.891 851.516 978.091 852.032 975.291 852.549 972.602 850.697 972.085 847.897Z" fill="#FFC000"/><text font-family="Arial,Arial_MSFontService,sans-serif" font-weight="400" font-size="92" transform="matrix(1 0 0 1 3285.31 1266)">(1,1)</text></g></svg>